<svg width="792" height="195" viewBox="0 0 792 195" fill="none" xmlns="http://www.w3.org/2000/svg">
<path d="M673.371 39.4444C673.51 39.394 673.629 39.2965 673.707 39.1677C673.785 39.0388 673.818 38.8862 673.801 38.7344L669.501 2.22438C669.49 2.12205 669.499 2.01856 669.529 1.92017C669.558 1.82177 669.607 1.73053 669.673 1.65198C669.738 1.57343 669.819 1.50921 669.91 1.46321C670 1.41721 670.099 1.3904 670.201 1.38438L689.471 0.00437946C689.867 -0.0259207 690.259 0.101897 690.562 0.360169C690.865 0.61844 691.055 0.986393 691.091 1.38438C691.938 10.9777 692.561 17.831 692.961 21.9444C693.161 24.0544 692.931 25.5644 692.071 27.6044C684.861 44.7744 679.331 56.3744 672.781 70.7444C665.101 87.5944 655.521 107.224 650.461 118.534C650.431 118.601 650.418 118.675 650.424 118.748C650.429 118.821 650.453 118.891 650.493 118.953C650.532 119.015 650.587 119.065 650.651 119.1C650.715 119.136 650.788 119.154 650.861 119.154H687.041C687.234 119.154 687.424 119.198 687.597 119.283C687.77 119.368 687.922 119.492 688.039 119.644C688.157 119.797 688.239 119.975 688.277 120.164C688.315 120.353 688.31 120.548 688.261 120.734C687.488 123.641 687.064 125.191 686.991 125.384C683.964 134.258 680.594 144.551 676.881 156.264C676.721 156.758 676.268 157.691 675.521 159.064C675.322 159.429 675.065 159.756 674.761 160.034L672.031 162.544C671.774 162.781 671.579 163.072 671.461 163.394L660.431 193.444C660.324 193.728 660.111 193.958 659.838 194.086C659.565 194.213 659.253 194.227 658.971 194.124L639.901 187.124C639.729 187.061 639.573 186.961 639.443 186.831C639.313 186.702 639.212 186.546 639.148 186.374C639.084 186.203 639.057 186.019 639.069 185.837C639.082 185.654 639.133 185.476 639.221 185.314C644.651 175.304 648.681 165.024 653.441 153.264C653.541 153.015 653.548 152.738 653.46 152.484C653.372 152.23 653.194 152.017 652.961 151.884C649.928 150.184 647.164 147.994 644.671 145.314C644.622 145.261 644.562 145.218 644.495 145.188C644.429 145.158 644.357 145.141 644.283 145.139C644.21 145.137 644.136 145.15 644.067 145.177C643.998 145.203 643.935 145.243 643.881 145.294C637.711 151.294 632.581 154.504 620.741 163.394C619.368 164.421 617.774 165.788 615.961 167.494C615.867 167.584 615.754 167.653 615.631 167.696C615.508 167.739 615.377 167.755 615.246 167.744C615.115 167.732 614.987 167.694 614.871 167.63C614.755 167.566 614.652 167.479 614.571 167.374L601.841 150.934C601.741 150.805 601.668 150.657 601.627 150.499C601.585 150.34 601.577 150.175 601.601 150.014C601.625 149.852 601.682 149.697 601.768 149.558C601.854 149.419 601.967 149.299 602.101 149.204L632.361 127.824C632.452 127.76 632.517 127.665 632.544 127.557C632.572 127.449 632.56 127.335 632.511 127.234C630.744 123.688 629.561 120.364 628.961 117.264C628.926 117.075 628.83 116.904 628.688 116.777C628.547 116.65 628.368 116.575 628.181 116.564C626.508 116.438 624.964 116.498 623.551 116.744C612.684 118.664 602.294 120.144 592.381 121.184C591.96 121.227 591.539 121.103 591.209 120.839C590.88 120.575 590.668 120.192 590.621 119.774L588.371 100.704C588.343 100.473 588.363 100.238 588.43 100.015C588.496 99.7912 588.608 99.5833 588.757 99.4037C588.907 99.2242 589.092 99.0767 589.3 98.9702C589.509 98.8637 589.737 98.8005 589.971 98.7844L626.071 96.2044C626.173 96.1967 626.269 96.1498 626.338 96.0735C626.407 95.9971 626.444 95.8972 626.441 95.7944C626.381 91.9811 626.924 88.3611 628.071 84.9344C628.146 84.7065 628.135 84.4593 628.041 84.2386C627.947 84.0179 627.777 83.8387 627.561 83.7344C614.988 77.701 605.234 73.1677 598.301 70.1344C596.621 69.4011 595.591 68.5444 595.211 67.5644C595.11 67.3116 595.061 67.0411 595.068 66.7694C595.075 66.4977 595.137 66.2306 595.251 65.9844L602.911 49.3344C602.992 49.1572 603.108 48.9984 603.252 48.8674C603.397 48.7365 603.566 48.6362 603.75 48.5727C603.934 48.5091 604.13 48.4836 604.324 48.4976C604.518 48.5117 604.708 48.565 604.881 48.6544L636.511 65.0844C636.801 65.2357 637.134 65.2845 637.455 65.2228C637.776 65.1611 638.067 64.9925 638.281 64.7444L645.111 56.7444C645.188 56.6532 645.233 56.539 645.239 56.4195C645.244 56.3001 645.21 56.1822 645.141 56.0844L623.921 26.0344C623.741 25.782 623.667 25.4694 623.714 25.1618C623.76 24.8543 623.924 24.5758 624.171 24.3844L638.801 13.0544C638.967 12.9248 639.158 12.8303 639.361 12.7766C639.565 12.7229 639.777 12.7111 639.985 12.742C640.193 12.7729 640.392 12.8458 640.57 12.9563C640.748 13.0667 640.901 13.2124 641.021 13.3844L661.911 42.9644C662.038 43.1397 662.218 43.2689 662.424 43.3321C662.63 43.3953 662.85 43.3891 663.051 43.3144L673.371 39.4444Z" fill="#F6CD46"/>
<path d="M739.861 91.2245H697.221C697.158 91.2253 697.097 91.2116 697.041 91.1843C696.985 91.157 696.936 91.117 696.898 91.0675C696.86 91.0179 696.834 90.9602 696.822 90.8989C696.811 90.8376 696.814 90.7744 696.831 90.7145L723.281 3.92445C723.313 3.82191 723.371 3.7291 723.449 3.65485C723.527 3.5806 723.622 3.5274 723.725 3.50032C723.828 3.47325 723.936 3.4732 724.039 3.50018C724.141 3.52717 724.235 3.58029 724.311 3.65447L790.591 68.1745C790.755 68.3321 790.879 68.5277 790.951 68.7445C791.271 69.6578 791.421 71.8145 791.401 75.2145C791.308 95.7011 791.304 125.614 791.391 164.954C791.401 169.064 791.741 177.124 789.781 181.614C787.321 187.244 783.621 191.524 777.771 193.134C776.257 193.554 773.744 193.758 770.231 193.744C734.738 193.638 704.774 193.688 680.341 193.894C680.296 193.897 680.251 193.886 680.212 193.864C680.173 193.842 680.14 193.809 680.118 193.769C680.095 193.729 680.083 193.684 680.084 193.637C680.085 193.591 680.097 193.545 680.121 193.504L740.241 91.8945C740.28 91.8258 740.3 91.7482 740.3 91.6694C740.3 91.5906 740.28 91.5134 740.242 91.4455C740.203 91.3777 740.148 91.3215 740.081 91.2827C740.014 91.2439 739.938 91.2238 739.861 91.2245Z" fill="black"/>
<path d="M70.5608 120.254C70.6897 120.253 70.8163 120.221 70.9293 120.159C71.0424 120.097 71.1383 120.008 71.2086 119.9C71.279 119.792 71.3215 119.669 71.3323 119.54C71.3432 119.412 71.322 119.283 71.2708 119.164L55.1108 81.5744C55.073 81.4835 55.009 81.4062 54.9268 81.3523C54.8446 81.2983 54.7478 81.2702 54.6486 81.2712C54.5494 81.2723 54.4521 81.3026 54.3689 81.3583C54.2857 81.414 54.2203 81.4926 54.1808 81.5844L20.4908 165.244C20.4523 165.342 20.384 165.426 20.2948 165.485C20.2055 165.544 20.0996 165.575 19.9908 165.574H0.430814C0.360483 165.574 0.291175 165.557 0.228986 165.524C0.166797 165.491 0.113632 165.444 0.0741395 165.387C0.0346467 165.33 0.0100376 165.264 0.00248421 165.196C-0.00506918 165.127 0.00466598 165.058 0.0308198 164.994C4.29749 153.934 8.30749 144.281 12.0608 136.034C15.0408 129.464 17.8708 121.884 21.3408 114.294C22.3208 112.154 23.5475 109.241 25.0208 105.554C30.5008 91.8611 37.2808 76.2644 45.3608 58.7644C45.3936 58.6924 45.446 58.6314 45.5116 58.5888C45.5773 58.5462 45.6534 58.5238 45.7308 58.5244H64.9808C65.1934 58.5247 65.4013 58.5851 65.5802 58.6984C65.759 58.8118 65.9015 58.9734 65.9908 59.1644C73.0308 74.1578 79.2475 87.7444 84.6408 99.9244C86.3142 103.718 89.2441 110.621 93.4308 120.634C100.391 137.304 106.201 149.924 112.671 164.814C112.711 164.906 112.727 165.006 112.719 165.105C112.71 165.204 112.677 165.3 112.623 165.383C112.568 165.466 112.494 165.535 112.406 165.582C112.319 165.63 112.22 165.654 112.121 165.654H90.4408C90.3239 165.654 90.2098 165.618 90.1148 165.55C90.0197 165.481 89.9484 165.385 89.9108 165.274C87.5308 158.654 84.8275 151.904 81.8008 145.024C80.8708 142.904 80.3108 140.424 79.6108 138.184C79.574 138.055 79.4956 137.942 79.3874 137.861C79.2792 137.779 79.1471 137.735 79.0108 137.734H43.3608C43.2182 137.736 43.0779 137.7 42.9535 137.63C42.829 137.56 42.7246 137.459 42.6503 137.337C42.5759 137.214 42.5342 137.074 42.529 136.93C42.5238 136.786 42.5555 136.643 42.6208 136.514L50.4808 121.404C50.659 121.058 50.9288 120.767 51.2604 120.564C51.5921 120.362 51.9728 120.254 52.3608 120.254H70.5608Z" fill="black"/>
<path d="M372.197 58.5982L353.577 58.6307C353.207 58.6313 352.908 58.9318 352.908 59.3018L352.933 73.6818C352.934 74.0518 353.235 74.3513 353.605 74.3506L372.225 74.3181C372.595 74.3175 372.894 74.017 372.893 73.647L372.868 59.267C372.868 58.897 372.567 58.5975 372.197 58.5982Z" fill="black"/>
<path d="M143.781 58.8945H123.541C123.392 58.8945 123.271 59.0154 123.271 59.1645V165.365C123.271 165.514 123.392 165.635 123.541 165.635H143.781C143.93 165.635 144.051 165.514 144.051 165.365V59.1645C144.051 59.0154 143.93 58.8945 143.781 58.8945Z" fill="black"/>
<path d="M181.441 103.955C181.574 109.488 181.758 115.571 181.991 122.205C182.171 127.265 182.011 132.975 182.091 137.995C182.201 144.845 185.751 149.665 193.251 149.285C196.791 149.105 198.854 149.055 199.441 149.135C199.631 149.159 199.806 149.252 199.933 149.398C200.06 149.543 200.13 149.73 200.131 149.925V165.305C200.131 165.364 200.119 165.424 200.095 165.479C200.071 165.534 200.037 165.584 199.993 165.626C199.949 165.668 199.897 165.701 199.84 165.723C199.783 165.745 199.722 165.756 199.661 165.755C197.588 165.675 190.974 165.638 179.821 165.645C175.534 165.645 171.504 164.198 167.731 161.305C162.281 157.125 161.251 149.055 161.291 142.205C161.504 109.478 161.594 86.3578 161.561 72.8445C161.561 72.7199 161.61 72.6003 161.699 72.5122C161.787 72.424 161.906 72.3745 162.031 72.3745H177.391C177.661 72.3751 177.922 72.4743 178.123 72.6532C178.324 72.8321 178.451 73.0782 178.481 73.3445L179.971 85.9545C179.991 86.1283 180.072 86.2887 180.199 86.4049C180.327 86.5212 180.491 86.5851 180.661 86.5845H198.981C199.198 86.5845 199.407 86.6699 199.561 86.8218C199.715 86.9737 199.801 87.1797 199.801 87.3945V102.645C199.801 102.726 199.785 102.807 199.754 102.882C199.723 102.957 199.677 103.025 199.619 103.083C199.562 103.14 199.493 103.186 199.418 103.217C199.343 103.248 199.262 103.265 199.181 103.265H182.111C182.021 103.264 181.932 103.282 181.85 103.317C181.767 103.352 181.692 103.403 181.63 103.468C181.567 103.532 181.518 103.608 181.486 103.692C181.454 103.776 181.438 103.865 181.441 103.955Z" fill="black"/>
<path d="M466.939 131.378C466.962 135.869 466.101 140.321 464.404 144.479C462.707 148.637 460.208 152.421 457.049 155.613C453.89 158.805 450.133 161.344 445.992 163.085C441.852 164.825 437.41 165.733 432.918 165.756L422.359 165.812C417.867 165.835 413.416 164.974 409.257 163.277C405.099 161.58 401.316 159.081 398.123 155.921C394.931 152.762 392.392 149.005 390.652 144.865C388.911 140.725 388.004 136.282 387.98 131.791L387.923 120.851C387.899 116.36 388.761 111.908 390.457 107.75C392.154 103.592 394.654 99.8085 397.813 96.6162C400.972 93.4238 404.729 90.885 408.869 89.1446C413.01 87.4041 417.452 86.4963 421.943 86.4728L432.503 86.4175C436.994 86.3939 441.446 87.2553 445.604 88.9522C449.763 90.6492 453.546 93.1486 456.738 96.3077C459.931 99.4668 462.469 103.224 464.21 107.364C465.95 111.504 466.858 115.947 466.882 120.438L466.939 131.378ZM445.782 119.267C445.551 114.703 443.516 110.418 440.125 107.355C436.735 104.291 432.266 102.7 427.702 102.931L424.806 103.078C422.546 103.192 420.331 103.751 418.287 104.721C416.243 105.692 414.41 107.055 412.893 108.734C411.376 110.413 410.205 112.374 409.446 114.506C408.687 116.637 408.355 118.898 408.47 121.157L409.08 133.202C409.311 137.766 411.346 142.051 414.736 145.114C418.127 148.178 422.596 149.769 427.159 149.538L430.056 149.391C432.315 149.277 434.531 148.719 436.575 147.748C438.619 146.777 440.451 145.414 441.968 143.735C443.485 142.056 444.657 140.095 445.416 137.963C446.175 135.832 446.506 133.572 446.392 131.312L445.782 119.267Z" fill="black"/>
<path d="M341.391 87.4743C341.565 87.4795 341.73 87.5513 341.852 87.6745C341.973 87.7977 342.041 87.9626 342.041 88.1343V104.414C342.042 104.481 342.028 104.548 342 104.609C341.972 104.671 341.931 104.725 341.88 104.77C341.829 104.814 341.769 104.848 341.703 104.867C341.638 104.887 341.569 104.893 341.501 104.884C334.421 104.034 326.901 107.704 320.891 111.254C320.8 111.306 320.724 111.38 320.671 111.47C320.618 111.559 320.59 111.661 320.591 111.764V165.014C320.591 165.187 320.522 165.352 320.4 165.474C320.279 165.596 320.113 165.664 319.941 165.664H300.031C299.987 165.664 299.945 165.656 299.905 165.64C299.864 165.624 299.828 165.6 299.797 165.571C299.767 165.541 299.743 165.506 299.726 165.467C299.709 165.428 299.701 165.386 299.701 165.344V87.4143C299.701 87.3347 299.732 87.2584 299.789 87.2021C299.845 87.1459 299.921 87.1143 300.001 87.1143H315.521C315.717 87.1149 315.907 87.1869 316.056 87.3172C316.205 87.4475 316.302 87.6275 316.331 87.8243L317.471 95.8343C317.49 95.9587 317.542 96.076 317.62 96.1747C317.698 96.2734 317.801 96.3502 317.918 96.3975C318.035 96.4448 318.162 96.4611 318.287 96.4447C318.412 96.4284 318.53 96.38 318.631 96.3043C318.911 96.0843 321.141 94.6209 325.321 91.9143C330.161 88.7743 335.517 87.2943 341.391 87.4743Z" fill="black"/>
<path d="M279.581 148.054V163.644C279.58 163.832 279.511 164.013 279.388 164.153C279.265 164.293 279.095 164.382 278.911 164.404C268.851 165.618 258.684 166.054 248.411 165.714C233.071 165.204 218.341 158.254 213.361 143.024C209.221 130.384 209.357 118.068 213.771 106.074C215.597 101.108 219.034 96.7709 224.081 93.0642C233.831 85.9142 251.341 86.1142 262.381 88.7342C282.701 93.5642 284.421 115.484 282.541 132.414C282.519 132.614 282.423 132.799 282.272 132.934C282.121 133.068 281.924 133.143 281.721 133.144C255.707 133.098 240.647 133.101 236.541 133.154C234.321 133.188 232.427 133.331 230.861 133.584C230.749 133.602 230.643 133.644 230.549 133.706C230.455 133.769 230.376 133.85 230.316 133.946C230.257 134.042 230.218 134.149 230.203 134.261C230.189 134.373 230.198 134.486 230.231 134.594C232.944 143.221 238.974 147.834 248.321 148.434C258.241 149.074 268.434 148.748 278.901 147.454C278.987 147.444 279.074 147.452 279.156 147.478C279.238 147.504 279.314 147.546 279.379 147.603C279.443 147.66 279.494 147.729 279.529 147.807C279.564 147.885 279.582 147.969 279.581 148.054ZM231.381 119.134L263.701 118.974C263.738 118.974 263.776 118.967 263.81 118.952C263.845 118.937 263.876 118.916 263.902 118.889C263.928 118.862 263.949 118.83 263.962 118.794C263.976 118.759 263.982 118.722 263.981 118.684V118.424C263.959 114.468 262.434 110.682 259.741 107.899C257.048 105.116 253.408 103.564 249.621 103.584L245.301 103.604C243.425 103.614 241.57 104.01 239.841 104.77C238.113 105.529 236.544 106.637 235.226 108.03C233.907 109.422 232.864 111.073 232.156 112.888C231.448 114.702 231.09 116.645 231.101 118.604V118.864C231.103 118.937 231.134 119.005 231.186 119.056C231.238 119.106 231.308 119.134 231.381 119.134Z" fill="black"/>
<path d="M372.169 87.4208L353.169 87.3877C352.716 87.3869 352.349 87.7534 352.348 88.2062L352.214 164.906C352.213 165.359 352.58 165.727 353.033 165.728L372.032 165.761C372.485 165.761 372.853 165.395 372.854 164.942L372.988 88.2423C372.989 87.7894 372.622 87.4216 372.169 87.4208Z" fill="black"/>
<path d="M499.501 97.0443C499.51 97.1734 499.554 97.2977 499.626 97.4048C499.699 97.512 499.798 97.5982 499.915 97.6549C500.031 97.7116 500.16 97.7367 500.29 97.7278C500.419 97.7189 500.543 97.6763 500.651 97.6042C503.077 95.9509 505.267 94.5409 507.221 93.3742C514.507 89.0076 522.421 87.0609 530.961 87.5342C536.021 87.8076 540.034 88.8076 543.001 90.5342C552.031 95.7842 555.221 107.514 555.181 117.454C555.101 136.414 555.134 152.378 555.281 165.344C555.281 165.407 555.268 165.47 555.244 165.528C555.22 165.586 555.185 165.639 555.14 165.684C555.096 165.728 555.043 165.764 554.984 165.788C554.926 165.812 554.864 165.824 554.801 165.824H535.101C534.92 165.824 534.748 165.752 534.62 165.622C534.492 165.493 534.421 165.317 534.421 165.134C534.441 139.821 534.494 123.748 534.581 116.914C534.647 111.681 533.034 108.064 529.741 106.064C521.911 101.294 509.801 106.434 503.411 111.674C503.22 111.827 503.067 112.022 502.961 112.243C502.856 112.465 502.801 112.708 502.801 112.954V164.914C502.801 165.132 502.714 165.34 502.561 165.494C502.407 165.648 502.198 165.734 501.981 165.734H482.691C482.629 165.734 482.568 165.722 482.511 165.698C482.454 165.675 482.402 165.64 482.359 165.597C482.315 165.553 482.28 165.501 482.257 165.444C482.233 165.387 482.221 165.326 482.221 165.264V87.7442C482.221 87.6917 482.231 87.6397 482.251 87.5912C482.27 87.5426 482.299 87.4985 482.335 87.4614C482.371 87.4243 482.414 87.3948 482.462 87.3747C482.509 87.3546 482.56 87.3442 482.611 87.3442H497.901C498.148 87.3438 498.386 87.4377 498.566 87.6068C498.747 87.7759 498.856 88.0075 498.871 88.2542L499.501 97.0443Z" fill="black"/>
</svg>
