<svg width="5726" height="3165" viewBox="0 0 5726 3165" fill="none" xmlns="http://www.w3.org/2000/svg">
<g clip-path="url(#clip0_130_1319)">
<path d="M4462.58 476.639C4927.77 468.434 4976.36 826.046 4938.23 1010.56C4913.65 1129.5 4828.68 1303.29 4591.55 1336.8C4543.14 1345.49 4378.66 1342.57 4319.98 1342.76C4265.31 1342.93 4181.78 1344.11 4127.37 1343.58C4119.09 1299 4122.56 1216.41 4122.51 1169.73L4122.32 864.321L4122.03 613.626C4121.98 583.676 4118.66 511.484 4124.65 483.67C4144.54 473.554 4409.32 482.456 4462.58 476.639ZM4661.04 1136.22C4772 1052.71 4783.53 929.672 4758.68 830.228C4741.75 762.484 4679.9 658.118 4544.84 638.863C4504.07 633.05 4365.85 632.505 4321.38 633.853C4315.43 637.261 4310.03 639.113 4309.86 643.826C4309.3 659.662 4309.68 676.606 4309.81 692.336L4310.31 801.367L4310.22 1038.15C4310.2 1081.15 4306.75 1138.24 4314.46 1181.7C4315.5 1187.6 4388.86 1186.58 4401.53 1186.76C4512.27 1188.31 4584.31 1191.62 4658.54 1138.06L4661.04 1136.22Z" fill="white"/>
<path d="M2255.99 479.415C2276.6 479.257 2405.07 476.341 2411.7 483.261C2442.22 515.113 2468.23 551.971 2493.92 585.324L2741.61 907.993C2771.67 946.851 2802.38 986.071 2830.6 1025.38C2833.48 1029.39 2837.68 1033.69 2844.82 1035.65C2850.05 1032.94 2851.27 1030.14 2851.11 1026.06C2849.51 982.772 2849.27 939.459 2849.04 896.165L2848.44 607.303C2848.38 583.919 2845.33 502.372 2852.66 485.721C2875.89 474.556 2940.75 481.001 2971.26 479.662C2986.5 478.993 3007.75 478.013 3020.35 483.077C3028.26 519.155 3024.9 578.941 3024.82 617.26L3024.79 844.361L3025.05 1209C3024.99 1225.9 3026.32 1330.69 3021.13 1342.18C2995.43 1347.09 2910.3 1344.54 2879.04 1343.72C2852.55 1343.01 2831.82 1307.07 2821.38 1293.87L2757.23 1212.69L2509.04 897.087C2494.58 878.7 2436.53 801.637 2421.97 789.359C2417.88 835.133 2420.23 890.152 2420.24 936.675L2420.08 1193.54L2419.97 1278.55C2420.16 1293.51 2426.95 1333.54 2407.05 1343.02C2384.37 1345.45 2273.82 1347.22 2251.83 1341.63C2243.29 1334.8 2244.21 1060.95 2243.96 1023.07L2242.62 506.196C2242.77 493.061 2240.23 488.025 2255.99 479.415Z" fill="white"/>
<path d="M1270.07 1642.43L1267.6 1643.9C1226.07 1668.27 1170.19 1689.38 1122.83 1710.18C1046.06 1743.96 979.371 1784.2 925.208 1829.42C862.413 1881.4 816.141 1940.25 783.051 1999.63C779.377 2006.23 770.408 2026.42 764.234 2030.1L760.21 2030.12C749.424 2023.34 741.075 1906.7 740.71 1889.31C737.828 1751.96 813.473 1588.82 1004.63 1495.62C1073.15 1462.6 1154.04 1438.36 1241.5 1424.65C1274.92 1419.31 1311.43 1416.2 1344.02 1410.16C1393.2 1401.05 1444.14 1386.95 1488.69 1372.08C1513.36 1363.85 1544.66 1351.27 1563.43 1339.09C1576.77 1330.44 1590.11 1317.21 1605.84 1310.08C1623.82 1315.1 1614.76 1395.02 1612.57 1408.78C1584.92 1580.66 1526.46 1760.38 1375.32 1913.43C1290.89 1998.93 1146.16 2080.95 955.623 2072.93C853.826 2068.65 857.081 2068.56 884.122 2014.31C937.051 1908.12 1036.57 1815.46 1172.82 1735.46C1218.22 1708.88 1253.73 1681.51 1293.83 1653.02C1305.55 1642.81 1352.52 1602.36 1353.87 1591.94L1350.26 1591.66C1332.76 1599.23 1296.18 1628.05 1273.4 1640.61L1270.07 1642.43Z" fill="white"/>
<path d="M3597.43 465.714C3644.66 461.33 3704.75 468.821 3747.49 480.283C3853.56 508.726 3928.71 573.407 3966.45 633.199C3948.2 658.029 3886.35 713.399 3858.21 739.946C3852.13 734.907 3840.46 724.021 3835.72 718.633C3764.02 637.15 3603.95 584.501 3479.43 672.325C3366.39 752.051 3338.48 867.257 3357.25 966.88C3372.2 1046.25 3456.92 1200.5 3645.73 1192.62C3732.31 1188.23 3800.13 1135 3842.64 1099.04C3847.8 1094.68 3853.88 1095.1 3862.29 1094.63C3880.72 1108.19 3954.06 1177.78 3963.24 1191.91C3946.65 1223.09 3907.76 1260.5 3870.95 1285.8C3761.22 1361.21 3561.3 1379.22 3424.89 1313.32C3253.17 1230.35 3189.31 1100.7 3171.26 978.526C3149.9 834.008 3199.9 662.424 3366.38 545.612C3424.65 505.869 3502.28 470.138 3597.43 465.714Z" fill="white"/>
<path d="M987.389 695.104C1012.39 700.642 1062.83 743.457 1081.96 757.988L1243.43 882.548L1515.69 1091.82C1559.82 1126.07 1605.51 1159.67 1646.49 1195.24C1657.1 1201.68 1680.07 1232.11 1662.12 1238.12C1634.76 1247.28 1546.58 1243.66 1514.94 1242.91C1473.55 1219.37 1409.02 1164.43 1370.74 1135.76C1243.46 1040.45 1122.49 933.089 989.969 840.483C944.625 868.191 859.778 938.812 818.592 971.286C744.088 1034.75 663.829 1098.18 587.025 1161.16C549.753 1192.03 511.571 1222.57 472.493 1252.76C452.515 1268.29 423.723 1291.78 400.128 1304.59C361.784 1304.46 317.4 1307.23 281.296 1302.78C255.921 1299.65 249.124 1275.64 257.592 1265.36C276.727 1242.15 310.933 1219.47 336.729 1198.86L487.91 1077.77C523.065 1050.15 560.158 1021.84 593.134 993.495C619.706 970.651 611.991 926.373 611.776 899.229L611.24 782.091C611.19 765.852 609.048 746.125 618.409 730.927C626.061 718.505 725.109 723.716 739.196 727.977C759.182 742.818 750.896 843.212 750.699 867.513C798.335 837.56 943.678 708.247 987.389 695.104Z" fill="white"/>
<path d="M1671.09 280.477C1675.33 280.788 1680.03 280.727 1682.68 283.109C1936.55 510.88 2020.66 774.119 2023.01 1038.6C2024.03 1232.71 1963.22 1425.41 1843.38 1607.87C1821 1641.32 1798.79 1673.59 1770.69 1705.69C1690.25 1799.83 1581.58 1885.77 1449.29 1959.88C1426.62 1971.7 1407.52 1979.65 1381.61 1989.03C1397.75 1972.96 1421.79 1958.1 1437.49 1942.11C1530.1 1847.75 1571.02 1742.67 1625.71 1640.76C1632.46 1632.35 1640.55 1623.42 1648.04 1615.28C1701.72 1557.77 1759.54 1481.6 1792.22 1421.21C1989.27 1057.01 1981.49 628.058 1672.12 283.118C1671.78 282.238 1671.43 281.358 1671.09 280.477Z" fill="white"/>
<path d="M2696.94 2819.57C3036.51 2816.25 3376.18 2819.56 3715.33 2829.49C3969.86 2836.04 4223.82 2848.16 4476.61 2865.83C4617.04 2874.42 4756.94 2885.43 4896.11 2898.87C5045.52 2913.54 5201.18 2932.98 5347.37 2956.01C5361.73 2958.27 5380.78 2962.01 5383.94 2970.76L5379.41 2974.47C5351.1 2972.32 5305.86 2965.91 5276.98 2962.38C5229.47 2956.73 5181.89 2951.28 5134.23 2946.04C4881.67 2917.81 4637.42 2903 4381.47 2889.55C4010.31 2870.03 3637.39 2866.43 3264.91 2865C3066.36 2863.2 2867.78 2862.42 2669.21 2862.63C2257 2863.6 1845.03 2873.86 1434.33 2893.39C1146.59 2906.45 863.228 2920.8 580.725 2953.43C568.795 2954.81 559.384 2955.82 549.142 2951.85L550.509 2949.17C575.969 2938.52 706.524 2925.44 743.642 2920.57C1086.51 2875.59 1440.48 2856.28 1791.43 2842.56C1964.9 2835.78 2138.96 2830.06 2312.73 2826.26L2696.94 2819.57Z" fill="white"/>
<path d="M720.087 2321.74C822.893 2319.84 876.833 2375.95 902.668 2423.04C949.199 2507.85 930.685 2687.41 744.753 2717.03C633.744 2715.07 568.319 2645.27 548.229 2592.17C518.9 2514.66 528.617 2413.46 626.729 2350.48C652.24 2334.1 682.34 2326.19 720.087 2321.74Z" fill="white"/>
<path d="M715.972 2413.77C741.597 2413.73 760.474 2419.7 771.16 2433.23C791.402 2458.85 780.784 2480.61 764.848 2505.53C792.526 2534.78 801.367 2534.35 807.997 2570.35C872.058 2581.17 852.88 2550.04 840.542 2528.65C835.571 2520.03 796.132 2515.71 790 2507.83C794.452 2491.9 809.746 2499.62 821.722 2491.78C862.484 2465.11 807.393 2453.84 787.425 2443.17L788.39 2439.23C794.36 2437.05 810.922 2433.72 817.399 2435.22C865.28 2446.27 845.131 2486.78 838.823 2505.23L845.964 2512.66C864.361 2531.63 900.388 2602.43 821.775 2587.97C817.83 2583.81 817.608 2583.42 812.152 2579.88C783.646 2592.05 855.549 2616.47 744.408 2617.97C665.645 2618.7 649.492 2626.54 654.408 2578.13C640.597 2585.03 626.345 2591.68 607.018 2591.32C571.267 2580.56 603.924 2522.41 616.023 2505.55C628.536 2488.1 588.696 2447.63 641.829 2434.36C645.158 2434.27 652.498 2433.96 655.526 2435.35C706.055 2458.6 620.605 2443.11 626.769 2474.43C631.758 2499.78 668.46 2492.05 675.657 2506.6L671.562 2510.52C661.05 2514.88 650.301 2515.27 637.136 2516.73C620.665 2528.88 592.235 2554.72 612.167 2568.87C616.028 2572.53 648.649 2573.42 650.595 2570.01C665.766 2543.45 660.089 2529.95 699.116 2508.29C680.449 2478.32 662.091 2436.8 715.972 2413.77Z" fill="#F2F4F4"/>
<path d="M729.703 2516.03C777.322 2521.58 808.771 2574.69 785.217 2596.87C778.827 2602.89 747.221 2602.05 735.399 2602.1C718.98 2601.95 693.971 2602.33 678.946 2600.05C646.45 2583.26 684.038 2524.25 729.703 2516.03Z" fill="white"/>
<path d="M727.913 2428.76C759.03 2429.79 766.401 2451.06 764.709 2465.14C762.815 2480.9 756.014 2488.3 734.77 2498.53C679.258 2492.89 695.487 2446.46 727.913 2428.76Z" fill="white"/>
<path d="M2371.05 2334.03C2460.4 2332.82 2520.94 2378.1 2548.09 2419.95C2601.28 2501.91 2587.08 2702.1 2396.98 2725.27C2149.53 2734.33 2103.63 2368.78 2371.05 2334.03Z" fill="white"/>
<path d="M2348.13 2494.44C2368.88 2493.23 2381.54 2492.48 2397.63 2500.05C2410.9 2506.3 2420.5 2520.47 2402.56 2526.5C2391.03 2530.37 2385.56 2513.69 2362.61 2511.47C2333.6 2516.74 2279.14 2582.05 2288.71 2600.38C2317.23 2654.99 2352.48 2604.13 2370.87 2583.2C2377.79 2580.39 2378.99 2579.22 2387.44 2579.06C2410.53 2592.36 2340.65 2650.87 2311.72 2643.58C2220.83 2620.69 2292.41 2514.9 2348.13 2494.44Z" fill="#F2F4F4"/>
<path d="M2444.25 2415.53C2460.26 2417.32 2471.59 2422.14 2480 2429.75C2524.36 2469.86 2465.75 2544.73 2403.66 2566.97C2373.59 2561.06 2350.97 2555.29 2351.9 2534.44L2355.67 2533.06C2372.35 2535.4 2380.81 2541.39 2399.03 2545.08C2411.77 2544.2 2405.91 2545.37 2416.87 2540.87C2443.48 2518.28 2518.99 2452.4 2442.28 2436.59C2415.44 2437.65 2393.09 2476.43 2373.71 2482.79L2371.24 2481.68C2362.59 2458.6 2404.61 2423.32 2444.25 2415.53Z" fill="#F2F4F4"/>
<path d="M3996.84 2335.28C4022.3 2336.13 4044.62 2336.86 4067.71 2343.72C4123.06 2360.15 4164.36 2403.99 4180.48 2436.07C4216.89 2508.54 4208.43 2605.78 4141.39 2672.27C4114.76 2698.68 4084.95 2717.02 4031.89 2725.53C3919.07 2728.18 3853.58 2654.95 3836.92 2602.68C3814.25 2531.55 3817.31 2443.23 3890.38 2380.33C3914.33 2359.71 3952.53 2340.18 3996.84 2335.28ZM3939.15 2607.16C3932.35 2617.92 3915.6 2637.57 3928.58 2647.54C3940.96 2644.59 3943.74 2639.96 3948.68 2633.2C3952.03 2628.56 3955.2 2623.87 3958.17 2619.15C4082.2 2649.66 4100.73 2541.44 4105.14 2498.63C4107.28 2477.8 4109.29 2433.57 4097.56 2415.51L4095.61 2414.49C4074.51 2421.17 4054.95 2429.74 4035.49 2437.4C3978.07 2460 3944.28 2476.34 3926.23 2515.13C3909.08 2551.97 3918.08 2572.27 3939.15 2607.16Z" fill="white"/>
<path d="M4077.58 2441.76L4084.08 2442.48C4098.59 2456.61 4082.67 2520.43 4075.34 2542.23C4069.67 2559.09 4027.17 2628.8 3977.44 2599.94C3962.53 2591.29 4023.46 2526 4040.18 2507.13C4041.79 2503.17 4043.35 2500.29 4039.29 2496.95C4013.41 2500.1 3963.33 2566.82 3948.04 2581.57L3945.76 2583.75C3913.66 2513.06 3976.7 2476.6 4077.58 2441.76Z" fill="white"/>
<path d="M1144.2 471.79C1379.24 468.388 1454.77 695.822 1433.36 794.035C1429.18 813.199 1404.92 923.662 1367.82 919.493C1348.43 911.136 1329.57 887.703 1321.54 874.82C1325.75 862.35 1336.33 844.103 1342.2 830.664C1357.84 795.921 1362.06 759.908 1354.67 724.339C1351.75 704.201 1345.66 684.242 1336.47 664.688C1314.78 619.356 1242.18 536.738 1132.21 553.553C1067.9 563.387 1031.14 602.694 1000.12 632.667C934.859 645.574 938.381 657.089 899.499 684.528L897.539 685.893C900.216 610.939 985.72 482.309 1144.2 471.79Z" fill="white"/>
<path d="M503.679 1294.3L510.205 1295.85C517.802 1302.02 513.45 1353.66 513.361 1365.59L512.365 1617.84C512.38 1646.76 517.484 1704.91 513.648 1730.05L510.618 1730.6C501.16 1725.21 490.82 1709.5 485.297 1701.92C467.786 1676.22 429.753 1636.22 421.333 1611.49C414.839 1592.42 417.876 1375.04 425.984 1361.63C432.776 1350.4 487.963 1307.31 503.679 1294.3Z" fill="white"/>
<path d="M2255.45 1941.66C2279.6 1943.15 2340.66 1947.58 2356.97 1954.99C2433.86 1989.93 2418.36 2079.02 2367.9 2119.1C2359.44 2124.49 2349.89 2128.78 2337.27 2131.06C2323.72 2133.49 2259.73 2135.06 2251.16 2130.52C2241.4 2125.36 2242.82 2093.49 2242.94 2084.78C2243.5 2040.82 2240.61 1996.68 2242.72 1952.74C2242.83 1950.42 2252.58 1943.72 2255.45 1941.66ZM2353.4 2094.08C2398.7 2055.52 2391.85 1970.24 2283.33 1971.97C2279.85 1974.27 2276.05 1976.88 2275.86 1980.07C2273.68 2017.13 2273.17 2055.05 2275.77 2092.09C2277.38 2114.93 2333.18 2105.39 2353.4 2094.08Z" fill="white"/>
<path d="M4304.41 1660.18C4423.86 1650.63 4443.97 1809.2 4323.84 1841.21C4210.96 1849.57 4176.14 1682.54 4304.41 1660.18ZM4324.86 1813.66C4394.88 1788.27 4393.71 1681.73 4302.16 1687.67C4236.7 1713.19 4244.03 1765.92 4281.76 1800.78C4291.42 1809.7 4305.96 1814.65 4324.86 1813.66Z" fill="white"/>
<path d="M2990.02 1660.18C3110.54 1653.28 3133.15 1812.87 3011.49 1841.13C2897.02 1849.34 2867.53 1682.89 2990.02 1660.18ZM3016.43 1811.7C3078.74 1790.87 3080.1 1683 2990.98 1687.45C2931.9 1708.45 2931.53 1765.98 2964.07 1796.86C2977.1 1809.22 2992.29 1811.92 3016.43 1811.7Z" fill="white"/>
<path d="M5011.56 1944.6C5065.32 1944.05 5108.35 1946.92 5125.96 1980.33C5144.81 2016.09 5129.04 2037.77 5098.98 2069.1C5107.25 2082.49 5140.82 2126.51 5118.87 2135.4C5091.05 2134.52 5086.29 2116.5 5080.37 2103.69C5074.51 2097.63 5066.39 2064.9 5028.33 2075.53C4994.37 2085.01 5039.28 2123.12 5002.16 2135.66L4996.09 2134.82C4969.81 2116.07 4994.03 1991.55 4986.12 1960.54C4983.72 1951.12 4997.28 1947.23 5011.56 1944.6ZM5075.45 2043.31C5115.76 2020.36 5111.54 1972.13 5035.64 1975.2C5009.54 1987.84 4998.83 2053.25 5057.95 2046.23C5064.96 2045.4 5069.14 2045.55 5075.45 2043.31Z" fill="white"/>
<path d="M3834.89 1944.14C3848.22 1943.97 3863.29 1943.94 3863.59 1953.92C3865.27 2008.99 3866.89 2064.35 3864.56 2119.4C3864.28 2126.11 3863.26 2128.14 3854.64 2132.13C3843.53 2132.8 3848.62 2133.39 3838.87 2130.2C3837.06 2128.63 3832.01 2124.38 3831.87 2122.53C3828.87 2082.84 3832.67 2042.36 3828.89 2002.71C3799.31 2037.47 3794.36 2084.11 3767.18 2121.25C3726.02 2082.81 3725.64 2035.59 3698.6 2004.18C3694.11 2006.74 3696.09 2006.45 3695.26 2011.74C3695.57 2046.72 3694.03 2081.77 3696.05 2116.69C3696.49 2124.26 3696.49 2128.63 3687.17 2133.68C3676.25 2133.97 3681.56 2134.42 3670.89 2131.55C3665.6 2126.01 3663.78 2091.04 3664.77 2084.51C3668.08 2062.63 3652.83 1958.46 3673.12 1947.06C3711.23 1940.53 3717.67 1973.61 3725.05 1986.86C3739.13 2012.13 3748.66 2038.97 3764.31 2063.94L3765.52 2065.82C3773.3 2044.61 3812.03 1953.99 3834.89 1944.14Z" fill="white"/>
<path d="M2989.46 1943.8C3000.48 1944.58 3019.12 1945.52 3030.13 1945.17C3099.08 1942.99 3122.1 1972.69 3122.84 2006.24C3123.36 2030.24 3109.21 2048.38 3089.71 2070.15C3096.65 2086.56 3128.33 2119 3113.42 2132.35C3104.77 2134.18 3104.08 2133.6 3095.15 2132.38C3084.96 2127.36 3083.89 2120 3077.84 2113.16C3071.56 2099.15 3061.22 2067.13 3025.13 2071.92C2993.46 2083.16 3028.78 2130.7 2992.38 2134.54C2976.97 2128.5 2979.88 2100.16 2980.15 2090.22C2981.41 2045.25 2977.2 2000.16 2980.11 1955.24C2980.42 1950.39 2984.38 1947.52 2989.46 1943.8ZM3072.29 2042.35C3093.63 2025.82 3100.72 1987.7 3064.23 1976.17C3050.69 1971.9 3035.49 1973.24 3020.98 1974.08C3014.68 1976.8 3012.69 1977.57 3012.13 1983.41C3010.98 1995.1 3005.18 2031.05 3016.62 2039.95C3033.98 2046.2 3052.15 2044.4 3072.29 2042.35Z" fill="white"/>
<path d="M4641.21 2075.52C4643.44 2043.76 4640.21 2010.62 4640.85 1978.74C4641.07 1967.69 4640.36 1953.58 4655.33 1945.36C4666.24 1944.29 4678.01 1948.53 4678.18 1954.4C4679.82 2009.88 4680.8 2065.65 4679.12 2121.14C4679.01 2124.85 4674.39 2129.39 4671.06 2132.54C4661.12 2133.41 4658.94 2133.97 4649.3 2132.09C4623.38 2117.45 4564.79 2029.25 4550.61 2006.97C4548.51 2041.96 4550.57 2077.51 4551.35 2112.52C4551.51 2119.66 4541.74 2137.23 4524.2 2132.82C4502.3 2115.79 4517.12 1994.91 4516.17 1968.36C4515.84 1959.1 4519.29 1950.09 4532.49 1943.66C4536.97 1944.88 4544.6 1946.87 4546.98 1949.2C4584.17 1985.54 4608.81 2038.88 4641.21 2075.52Z" fill="white"/>
<path d="M3490.22 1943.95C3499.62 1944.3 3505.83 1944.79 3512.17 1948.98C3524.71 1957.26 3589.62 2115.21 3586.07 2126.78C3584.69 2131.3 3581.96 2131.78 3575.62 2134.2L3569.17 2133.52C3555.13 2125.72 3548.24 2103.62 3541.7 2091.36L3512.35 2091.2C3494.74 2091.12 3475.35 2091.59 3457.6 2091.83C3452.37 2102.15 3441.23 2130.67 3425.62 2135.59C3421.71 2136.82 3420.5 2135.87 3415.21 2134.97C3400.42 2123.13 3468.71 1958.04 3490.22 1943.95ZM3494.42 2063.52C3505.43 2063.85 3513.12 2064.8 3522.8 2062.11C3532.2 2055.06 3509.73 1994.74 3497.67 1988.19C3493.18 1998.32 3464.56 2055.93 3468.31 2062.68C3477.67 2064.68 3484.36 2063.89 3494.42 2063.52Z" fill="white"/>
<path d="M3429.4 1660.28C3437.64 1661.01 3449.52 1662.29 3452.02 1667.04C3467.42 1696.32 3526.62 1815.82 3516.72 1837.65C3508.36 1839.82 3512.63 1839.43 3503.47 1838.87C3485.48 1831.96 3489.95 1812.71 3476.31 1800.55C3468.77 1798.16 3449.47 1799.06 3439.65 1799.12C3432.44 1799.01 3425.22 1798.98 3418 1799.02C3367.56 1799.57 3393.91 1843.99 3359.79 1840.41C3356.51 1838.34 3352.68 1836.76 3352.73 1834.4C3353.36 1801.62 3403.36 1683.72 3429.4 1660.28ZM3403.12 1774L3441.23 1773.89C3450.28 1773.26 3456.72 1773.49 3463.29 1770.21C3465.75 1761.6 3445.42 1710.32 3435.74 1704.29C3423.79 1718.67 3405.66 1758.34 3403.12 1774Z" fill="white"/>
<path d="M3638.22 1660.97C3646.46 1662.23 3656.97 1664.6 3660.04 1668.95C3675.39 1690.67 3730.72 1822.09 3724.47 1835.62C3717.36 1840.86 3715.72 1843.01 3705.24 1840.17C3692.39 1830.2 3691.47 1814.08 3689.02 1801.82C3676.93 1800.96 3667.13 1800.69 3654.94 1800.39C3640.77 1800.31 3614.08 1799.26 3602.77 1801.87C3589.46 1811.96 3594.69 1833.73 3573.63 1840.13C3564.48 1840.35 3565.03 1840.05 3557.24 1837.18C3553.17 1830.92 3612.76 1698.86 3618.48 1681C3620.62 1674.32 3626.79 1664.81 3638.22 1660.97ZM3649.35 1771.06C3660.79 1771.05 3661.13 1772.05 3669.51 1769.33C3670.86 1759.58 3652.83 1705.65 3641.33 1699.36C3634.68 1709.57 3610.15 1761.15 3613.17 1769.86C3625.18 1772.18 3636.41 1771.3 3649.35 1771.06Z" fill="white"/>
<path d="M3991.73 1944.84C4018.22 1944.25 4103.13 1937.74 4089.04 1962.64C4071.86 1992.98 3981.68 1949.39 3988.85 2007.45C3992.73 2038.87 4054.7 2017.71 4078.79 2029.2C4086.32 2037.11 4083.48 2047.5 4071.49 2053.62C4022.13 2064.59 3982.85 2032.11 3994.44 2098.76C4020.28 2111.27 4060.51 2096.49 4088.23 2106.63C4094.35 2111.3 4093.99 2112.67 4093.8 2118.01C4091.92 2138.9 4051.96 2132.34 4029.86 2132.94C3953.9 2134.99 3954.1 2133.07 3956.31 2092.63C3958.64 2050.05 3957.01 2004.67 3958.18 1961.81C3958.58 1947.27 3968.96 1946.72 3991.73 1944.84Z" fill="white"/>
<path d="M2523.45 1660.76C2549.66 1661.1 2554.02 1667.22 2557.77 1681.19C2565.21 1708.88 2621.4 1813.91 2615.14 1836.1C2609.09 1840.89 2607 1842.85 2597.3 1840.53C2583.91 1831.35 2580.39 1811.59 2576.53 1799.24L2546.6 1798.49L2495.12 1798.78C2489.04 1809.91 2481.66 1839.45 2460.6 1842.02C2453.08 1839.39 2453.71 1839.47 2449.69 1835C2448.09 1819.83 2510.2 1675.33 2523.45 1660.76ZM2531.83 1773.44L2561.74 1769.94C2555.6 1756.75 2544.7 1708.22 2533.49 1702.48C2524.55 1713.73 2504.2 1758.05 2504.89 1770.15C2511.97 1774.3 2521.69 1773.5 2531.83 1773.44Z" fill="white"/>
<path d="M4780.97 1945.56C4802.05 1945.93 4869.86 1942.34 4889.2 1948.64C4908.27 1954.85 4901.82 1976.89 4870.97 1974.75C4857.74 1973.83 4831.87 1974.09 4816.32 1975.44L4811.87 1975.84C4772.79 2043.74 4862.73 2014.95 4888.13 2030.13C4891.96 2034.99 4892.32 2036.4 4891.53 2041.92C4888.11 2065.93 4834.11 2045.69 4811.66 2059.63C4798.25 2067.97 4802.15 2081.64 4803.52 2092.14C4834.48 2116.55 4885.39 2091.85 4903.03 2111C4930.92 2141.3 4806.34 2137.9 4781.3 2131.03C4757.63 2112.92 4775.55 2001.97 4771.17 1975.69C4770 1968.7 4773.68 1951.75 4780.97 1945.56Z" fill="white"/>
<path d="M3274.9 1660.47C3276.21 1660.53 3277.53 1660.56 3278.83 1660.65C3285.06 1661.08 3290.53 1661.98 3294.1 1664.96C3301.9 1671.47 3298.36 1792.9 3297.11 1807.89C3296.27 1817.91 3294.39 1827.81 3290.34 1837.59L3283.8 1838.99C3253.49 1833.3 3203.37 1737.86 3180.73 1717.92L3178.66 1718.58C3168.34 1751.7 3183.43 1800.47 3174.77 1836.16C3170.01 1838.45 3170.48 1838.01 3164.62 1839.59C3129.65 1833.63 3153.89 1720.54 3147.29 1698.65C3144.93 1690.82 3150.59 1670.34 3155.95 1662.72L3162.12 1662.75C3195.76 1673.66 3240.26 1756.66 3265.71 1784.81C3266.21 1763.16 3262.06 1674.34 3274.9 1660.47Z" fill="white"/>
<path d="M2370.54 1659.28C2376.55 1659.83 2390.26 1662.38 2390.45 1666.07C2391.97 1695.32 2403.23 1816.49 2386.61 1837.19C2378.27 1840.2 2382.78 1839.48 2372.5 1839.19C2354.82 1831.75 2339.67 1801.79 2330.73 1789.25C2311.99 1763.58 2292.96 1737.97 2273.64 1712.42C2266.88 1741.35 2276.91 1817.56 2267.77 1838.04C2260.06 1838.86 2262.87 1838.72 2254.86 1838.04C2251.6 1836.6 2248.77 1835.24 2246.78 1833.16C2235.77 1821.63 2240.3 1702.97 2242.82 1684.11C2243.67 1676.81 2246.37 1669.61 2250.86 1662.72L2256.13 1661.86C2290.53 1670.35 2329.24 1758.81 2364.06 1780.88C2362.71 1763.26 2360.03 1670.07 2370.54 1659.28Z" fill="white"/>
<path d="M4312.58 1944.76C4331.76 1945.07 4394.89 1942.29 4414.2 1946.46C4437.99 1951.61 4432.21 1974.63 4402.76 1975.65C4384.84 1976.27 4357.4 1975.52 4336.01 1975.71C4321.17 2030.9 4336.69 2022.88 4407.76 2025.67C4420.77 2026.18 4421.46 2043.72 4412.8 2051.4C4381.27 2065.09 4303 2031.74 4334.87 2096.69C4356.87 2114.39 4402.21 2095.17 4429.1 2108.04C4438.28 2118.35 4427.46 2132.26 4409.05 2133.28C4383.47 2134.7 4332.21 2137.34 4309.61 2131.92C4289.17 2118.94 4303.21 1987.13 4300.93 1964.08C4300.2 1956.69 4302.23 1949.98 4312.58 1944.76Z" fill="white"/>
<path d="M5303.06 1941.34C5353.26 1944.37 5389.26 1981.44 5354.14 1988.73C5331.36 1984.98 5302.45 1954.22 5265.73 1988.28C5240.11 2012.04 5236.74 2043.95 5247.34 2070.76C5253.93 2087.4 5279.44 2112.08 5319.5 2105.89C5352.8 2098.7 5330.57 2058.67 5347.04 2041.89C5354.95 2039.07 5352.37 2039.95 5364.27 2040.73C5378.04 2057.57 5380.65 2093.71 5369.39 2112.09C5364.49 2120.09 5339.55 2131.72 5324.57 2134.43C5271.94 2143.94 5232.6 2115.18 5218.69 2090.58C5195.77 2052.36 5202.2 2009.29 5233.43 1973.05C5249.15 1954.82 5269.98 1947.18 5303.06 1941.34Z" fill="white"/>
<path d="M2743.42 1943.63C2765.13 1945.31 2763.04 1948.05 2765.51 1959.38C2770.13 1980.58 2735.46 2126.93 2828.68 2102.61C2874.75 2090.59 2852.2 1985.19 2857.17 1960.33C2858.55 1953.43 2858.59 1951 2869.29 1946.07C2879.72 1944.88 2875 1944.41 2883.96 1947.43C2895.18 1958.18 2891.65 1967.37 2890.5 1979.95C2890.79 2022.74 2912.34 2127.2 2810.33 2134.26C2749.15 2138.49 2731.83 2076.07 2733.65 2052.94C2735.51 2029.41 2716.02 1958.36 2743.42 1943.63Z" fill="white"/>
<path d="M3213.3 1945.58C3239.81 1944.86 3308.31 1943.85 3331.64 1947.4C3375.04 1965.9 3241.45 2080.95 3248.73 2101.6C3272.75 2113.04 3352.17 2089.68 3343.6 2122.07C3341.86 2128.61 3333.02 2131.73 3323.8 2135.08C3296.37 2134.99 3232.53 2136.12 3208.81 2131.78C3166 2112.09 3294.27 2007.55 3292.17 1979.81C3283.17 1966.54 3220.49 1980.58 3207.18 1970.95C3193.13 1960.78 3199.9 1952.84 3213.3 1945.58Z" fill="white"/>
<path d="M4794.85 1657.11C4820.22 1655.52 4856.64 1657.04 4881.72 1658.91C4897.18 1660.06 4904.93 1675.79 4897.93 1682.48C4883.76 1694.3 4844.52 1683.77 4823.03 1687.71C4803.7 1693.5 4801.38 1712.96 4810.23 1727.59C4822.79 1748.35 4923.6 1719.52 4883.52 1760.02C4878.7 1764.89 4850.82 1761.96 4839.31 1762.05C4798.94 1762.37 4806.83 1790.7 4807.71 1806.2L4809.25 1808.47C4831.68 1818.71 4898.37 1801.64 4906.99 1820.31C4910.46 1829.17 4895.71 1844.35 4877.9 1842.98C4861.01 1841.68 4786.95 1844.48 4783.76 1832.65C4771.8 1788.15 4782.1 1738.71 4778.51 1693.45C4777.39 1679.4 4774.09 1665.33 4794.85 1657.11Z" fill="white"/>
<path d="M5450.43 1657.09C5476.35 1657.4 5570.77 1652.44 5546.58 1678.89C5531.46 1695.41 5492.47 1685.53 5467.13 1689.55C5450.73 1694.52 5450.67 1712.85 5457.37 1725.5C5469.85 1749.06 5571.96 1718.24 5530.65 1762.1C5526.56 1766.43 5496.48 1764.28 5485.58 1764.57C5447.04 1765.63 5454.62 1792.12 5456.06 1807.23C5479.36 1816.1 5514.24 1807.18 5540.69 1812.15C5557.26 1815.26 5557.37 1827.3 5550.9 1834.47C5530.08 1845.33 5453.5 1846.71 5434.39 1836.56C5431.17 1831.21 5428.72 1825.2 5428.69 1819.52C5428.5 1770.92 5427.73 1722.18 5429.79 1673.6C5430.16 1664.92 5438.51 1661.46 5450.43 1657.09Z" fill="white"/>
<path d="M2629.63 1943.82C2638.47 1947.42 2643.47 1948.44 2644.3 1955.81C2646.01 1970.86 2646.58 1986.79 2645.94 2002.05C2643.75 2041.51 2652.79 2089.15 2610.6 2123.17C2589.18 2140.44 2543.1 2136.31 2523.14 2122.72C2474.77 2089.81 2487.45 2017.67 2488.45 1977.41C2488.17 1967.69 2484.5 1950.57 2500.79 1945.18C2506.03 1946.17 2513.55 1947.48 2514.96 1950.64C2532.95 1980.9 2499.78 2075.91 2540.64 2098.98C2619.99 2143.77 2616.1 2009.99 2614.89 2000.41C2612.13 1978.56 2605.74 1955.7 2629.63 1943.82Z" fill="white"/>
<path d="M897.724 1110.17C916.578 1109.8 960.376 1106.82 973.119 1115.03C983.898 1132.7 982.231 1183.65 977.847 1203.92C976.458 1210.34 969.246 1211.66 960.583 1214.62C940.954 1215.56 896.048 1219.69 882.531 1212.08C872.644 1195.15 870.716 1138.52 878.333 1119.23C880.543 1113.64 889.33 1112.37 897.724 1110.17Z" fill="white"/>
<path d="M894.67 1249.36C982.142 1246.35 981.335 1245.27 980.59 1295.96C980.355 1312 987.827 1343.43 966.432 1353.56C883.755 1354.32 873.989 1361.31 874.058 1308.58C874.083 1289.75 861.314 1260 894.67 1249.36Z" fill="white"/>
<path d="M1065.18 1246.39C1083.5 1246.01 1119.46 1243.1 1121.55 1256.44C1125.83 1283.81 1132.48 1322.92 1117.88 1349.44C1115.76 1353.29 1094.67 1353.75 1088.3 1353.91C1068.35 1354.27 1047.06 1356.09 1030.64 1350.25C1020.22 1342.59 1022.38 1333.35 1023.44 1322.84C1025.66 1300.97 1011.43 1270.16 1033.92 1251.05C1039.81 1246.03 1055.57 1246.48 1065.18 1246.39Z" fill="white"/>
<path d="M5027.87 1660.22C5048.17 1659.16 5054.62 1660.58 5073.73 1664.23C5091.25 1674.16 5105.61 1684.59 5097.55 1699.1C5081.28 1705.14 5059.17 1688.35 5036.63 1687.77C4995.43 1686.1 4979.34 1729.19 4979.07 1745.86C4978.58 1775.39 5007.28 1841.97 5075.48 1797.19C5154.04 1797.04 5022.4 1893.41 4968.18 1804.72C4941.96 1761.83 4932.23 1677.4 5027.87 1660.22Z" fill="white"/>
<path d="M1037.71 1108.27C1052.26 1108.79 1109.18 1108.7 1114.06 1112.59C1133.38 1128.01 1122.87 1172.66 1124.5 1192.37C1125.41 1203.41 1120.47 1208.91 1108.35 1215.01C1092.08 1216 1036.35 1218.13 1031.18 1212.19C1017.26 1196.21 1017.43 1119.5 1037.71 1108.27Z" fill="white"/>
<path d="M4103.49 1659.91C4127.33 1658.99 4133.28 1660.49 4155.51 1664.53C4159.26 1666.88 4164.05 1669.37 4168.12 1671.62C4176.17 1683.56 4185.51 1691.73 4167.67 1701.89C4145.17 1705.64 4145.53 1685.51 4125.72 1685.37C4047.04 1684.81 4051.34 1780.02 4085.07 1803.01C4111.91 1821.31 4139.75 1808.11 4160.35 1797.98C4171.38 1797.16 4172.22 1797.91 4178.76 1802.15C4192.94 1834.29 4093.55 1864.59 4048.96 1808.73C4015.79 1767.18 4020.38 1681.42 4103.49 1659.91Z" fill="white"/>
<path d="M3254.23 2475.94C3264.85 2476.75 3280.27 2478.7 3291.2 2479.87C3336.96 2504.73 3346.26 2554.89 3291.79 2576.89C3225.12 2591.55 3226.69 2561.71 3224.53 2534.78C3223.05 2516.3 3221.05 2485.21 3254.23 2475.94ZM3285.43 2560.92C3315.34 2540.18 3318.13 2500.46 3263.27 2493.65C3252.38 2498.66 3247.78 2502.55 3247.1 2510.55C3245.76 2526.19 3240.53 2548.25 3257.53 2561.43C3269.6 2564.82 3273.06 2563.5 3285.43 2560.92Z" fill="white"/>
<path d="M1147.16 2477.31C1168.94 2477.88 1177.74 2479.45 1197.19 2483.45C1243.01 2511.2 1242.02 2547.83 1194.08 2574.74C1133.68 2599.24 1121.59 2551.08 1126.25 2529.01C1129.36 2514.34 1121.08 2485.85 1147.16 2477.31ZM1185.89 2556.39C1211.88 2534.53 1214.23 2495.61 1156.65 2493.37C1146.86 2509.06 1131.39 2550.62 1164.4 2559.76C1175.38 2559.82 1176.47 2559.18 1185.89 2556.39Z" fill="white"/>
<path d="M4573.62 2500.38C4581.67 2476.49 4586.78 2477.07 4630.31 2478.27C4734.88 2524.38 4623.02 2611.14 4580.31 2570.33C4570.77 2550.04 4573.33 2522.05 4573.62 2500.38ZM4632.14 2557.86C4661.73 2537.8 4661.34 2497.91 4601.9 2495.61C4590.13 2505.02 4589.62 2547.37 4603.7 2558.11C4616.23 2561.84 4619.37 2560.86 4632.14 2557.86Z" fill="white"/>
<path d="M4631.8 1660.53C4672.09 1669.76 4641.02 1772.72 4647 1794.19C4655.26 1823.88 4704.22 1803.71 4728.6 1813.98C4732.5 1820.26 4723.61 1834.75 4718.27 1840.68C4695.21 1845.08 4663.66 1843.09 4639.47 1842.12C4636.65 1840.95 4633.85 1839.76 4631.08 1838.55C4622.43 1834.73 4618.66 1833.31 4618.62 1826.71C4618.33 1775.85 4616.64 1724.44 4621.27 1673.68C4621.74 1668.46 4625.83 1664.36 4631.8 1660.53Z" fill="white"/>
<path d="M2666.2 1660.53C2689.41 1660.44 2740.68 1657.49 2761.55 1662.09C2777.83 1665.67 2777.88 1679.13 2767.51 1687.4C2751.72 1692.16 2743.15 1682.56 2724.21 1691.55C2714.38 1703.38 2719.05 1805.8 2717.57 1829.86C2715.12 1834.22 2714.17 1834.7 2709.74 1838.65L2702.79 1839.03C2684 1829.38 2691.4 1799.85 2690.39 1785.73C2688.22 1755.26 2695.5 1720.84 2689.04 1690.76C2668.35 1688.91 2627.69 1686.03 2633.93 1668.9C2641.34 1663.58 2654.76 1661.61 2666.2 1660.53Z" fill="white"/>
<path d="M5162.39 1660.05C5193.15 1659.69 5231.89 1659.51 5263.31 1659.8C5269.09 1659.85 5273.43 1663.22 5275.96 1665.91C5278.56 1668.66 5278.26 1676.77 5276.23 1679.66C5268.25 1691.08 5250.16 1683.52 5231.28 1689.92C5214.28 1701.77 5223.92 1800.2 5225.27 1820.88C5225.13 1829.32 5226.69 1833.9 5214.58 1839.59C5204.74 1839.01 5208.98 1839.99 5201.32 1836.68C5189.53 1817.53 5196.63 1732.42 5195.09 1706.83C5193.33 1677.59 5166.68 1690.19 5146.15 1679.79C5137.15 1669.62 5147.75 1664.78 5162.39 1660.05Z" fill="white"/>
<path d="M1518.2 757.496C1548.32 755.643 1606.38 755.559 1636.4 757.289C1676.53 759.602 1687.21 789.901 1645.79 801.878C1626.02 803.265 1605.52 803.492 1585.37 803.91C1541.86 804.811 1480.62 808.477 1495.1 772.473C1498.43 764.186 1505.55 761.651 1518.2 757.496Z" fill="white"/>
<path d="M858.007 322.023C864.353 322.819 872.324 323.996 877.49 326.371C894.747 334.304 960.047 436.909 964.096 453.148C966.815 464.055 959.372 470.717 948.116 479.298C945.604 478.916 944.033 478.787 941.782 477.982C918.26 469.577 849.178 363.735 845.748 344.546C844.063 335.116 847.238 329.284 858.007 322.023Z" fill="white"/>
<path d="M1129.69 227.693C1136.54 228.298 1135.62 228.285 1142.2 229.656C1170.52 248.132 1156.67 365.195 1155.23 394.461C1154.9 401.299 1147.23 410.739 1140.95 416.804L1131.17 415.132C1103.53 401.085 1115 276.842 1115.72 250.721C1115.92 243.492 1122.95 234.07 1129.69 227.693Z" fill="white"/>
<path d="M2988.1 2475.92C3046.87 2471.7 3053.51 2499.11 3041.52 2523.92C3053.6 2542.24 3061.93 2560.41 3033.24 2575.39C3008.93 2581.61 2977.43 2588.17 2972.22 2567.26C2966.61 2544.73 2969.22 2520.81 2969.01 2498.04C2968.91 2487.51 2974.5 2482.85 2988.1 2475.92ZM3015.27 2562.87C3037.59 2550.16 3037.99 2534.11 2997.46 2535.19C2981.03 2540.47 2977.88 2563.56 3015.27 2562.87ZM3019.28 2521.58C3036.22 2507.14 3030.16 2493.3 2994.29 2493.96C2979.53 2510.31 2985.27 2518.15 3019.28 2521.58Z" fill="white"/>
<path d="M1453.48 923.324C1479.4 924.271 1533.9 969.27 1551.82 982.132C1579.74 1002.18 1609.71 1020.51 1579.45 1044.19C1548.46 1043.28 1494.09 998.148 1472.94 984.173C1447.72 967.497 1429.83 943.569 1453.48 923.324Z" fill="white"/>
<path d="M3789.34 1660.05C3796.08 1661.12 3799.86 1661.29 3803.75 1664.89C3825.94 1685.45 3792.22 1795.94 3815.81 1807.9C3826.64 1813.39 3849.17 1810.54 3862.39 1810.38C3868.75 1810.31 3874.81 1810.85 3879.35 1813.53C3887.64 1818.43 3888.05 1826.73 3887.07 1833.1C3886.33 1837.98 3881.69 1839.51 3875.61 1842.54C3846.47 1838.8 3780.96 1846.7 3780.89 1826.26C3780.8 1799.26 3769.16 1676.23 3789.34 1660.05Z" fill="white"/>
<path d="M4471.49 1658.73C4478.95 1660.69 4482.83 1661.67 4486.42 1665.96C4506.37 1689.84 4475.41 1789.13 4494.66 1804.87C4508.63 1816.29 4535.64 1810.48 4556.36 1813.37C4573.21 1821.17 4569.02 1832.42 4557.01 1841.23C4457.85 1842.92 4460.1 1848.82 4461.14 1790.45C4461.85 1750.48 4459.01 1709.24 4462.97 1669.21C4463.39 1664.95 4467.21 1662.05 4471.49 1658.73Z" fill="white"/>
<path d="M704.384 535.594C721.413 536.864 743.502 544.997 757.294 550.668C794.806 566.093 891.609 597.388 840.017 628.068C816.847 626.499 768.236 604.976 746.306 596.252C698.313 577.159 668.746 565.949 704.384 535.594Z" fill="white"/>
<path d="M1589.06 504.605C1625.47 509.32 1611.74 536.35 1595.45 545.788C1561.08 565.71 1512.23 598.19 1473.6 614.091C1446.98 606.618 1451.78 595.061 1452.83 580.653C1469.73 565.76 1561.72 515.423 1589.06 504.605Z" fill="white"/>
<path d="M1392.75 299.051L1401.16 301.083C1409.49 306.937 1409.22 309.739 1411.89 316.81C1419.28 336.376 1352.25 455.347 1337.36 465.989C1306.46 455.829 1310.7 434.401 1321.62 418.62C1340.8 390.898 1361.99 320.484 1392.75 299.051Z" fill="white"/>
<path d="M1587.72 2476.19C1661.04 2475.94 1677.78 2518.88 1635.03 2545.99C1640.87 2559.3 1650.83 2564.07 1647.75 2579.55L1643.24 2580.44C1632.85 2576.2 1630.13 2572.02 1624.03 2565.73C1619.52 2558.29 1618.27 2552.28 1603.63 2550.17C1589.94 2555.18 1591.55 2568.18 1581.61 2578.99L1577.27 2579.2C1561.32 2567.46 1568.58 2501.31 1572.94 2484.42C1574.21 2479.49 1581.11 2478.34 1587.72 2476.19ZM1589.08 2528.22C1602.06 2528.16 1616.65 2527.9 1629.49 2528.25C1653.92 2514.43 1630.18 2498.01 1600.39 2494.88C1585.11 2505.38 1589.63 2513.79 1589.08 2528.22Z" fill="white"/>
<path d="M4189.89 3069.23C4261.27 3066.54 4273.33 3133.04 4216.51 3158.94C4150.22 3170.16 4139.66 3088.54 4189.89 3069.23ZM4210.56 3144.94C4240.48 3128.15 4246.76 3094.18 4199.86 3085.55C4170.51 3100.11 4160.97 3143.52 4210.56 3144.94Z" fill="white"/>
<path d="M2846.6 3069.22C2931.92 3065.67 2936.19 3121.73 2898.92 3152.57C2824.63 3178.77 2833.45 3127.18 2834.73 3102.7C2835.41 3089.78 2829.95 3078.7 2846.6 3069.22ZM2886.79 3140.73C2899.27 3128.91 2906.41 3118.15 2900.61 3104.26C2897.1 3095.86 2876.56 3086.63 2862.18 3085.43C2849.81 3097.69 2847.57 3133.7 2866.15 3142.62C2875.46 3143.67 2876.74 3143.51 2886.79 3140.73Z" fill="white"/>
<path d="M2880.9 2479.34L2913.96 2477.88C2963.81 2494.76 2957.94 2524.68 2929.02 2549.13C2934.23 2557.61 2954.02 2573.82 2946.68 2579.94C2931.25 2579.78 2928.38 2574.81 2920.58 2568.15C2911.76 2556.37 2908 2555.41 2890.16 2547.68C2889.2 2555.68 2890.76 2577.49 2875.23 2579.4L2869.02 2576.97C2863.88 2571.28 2868.84 2500.06 2868.97 2488.77C2869.04 2483.02 2874.15 2482.01 2880.9 2479.34ZM2922.72 2532.35C2939.78 2512.96 2936.72 2496.64 2892.62 2494.22C2884.09 2501.82 2883.86 2520.95 2890.36 2528.82C2901.17 2529.92 2911.96 2531.1 2922.72 2532.35Z" fill="white"/>
<path d="M4553 2573.11C4550.34 2576.98 4552.63 2575.5 4546.18 2577.56C4525.34 2574.59 4531.55 2555.88 4506.91 2550.12C4486.27 2553.81 4502.81 2568.62 4489.87 2577.15C4481.73 2577.97 4485.26 2578.53 4478.76 2576.14C4474.04 2567.88 4471.87 2494.84 4479.86 2487.32C4503.81 2464.79 4547.49 2480.93 4560.66 2503.76C4560.5 2520.29 4552.78 2532.39 4539.91 2547.09C4543.6 2553.76 4551.49 2566.87 4553 2573.11ZM4531 2526.45C4547.38 2509.36 4538.78 2500.83 4507.13 2494.33C4504.98 2493.9 4502.83 2493.48 4500.67 2493.07C4491.75 2507.59 4484.64 2537.1 4531 2526.45Z" fill="white"/>
<path d="M5475.48 1943.15C5502.23 1951.87 5495.86 1974.61 5495.78 1990.72C5495.58 2035.35 5497.99 2080.34 5494.34 2124.86C5494.12 2127.53 5484.51 2135.14 5481.6 2137.45C5469.84 2136.49 5474.42 2137.89 5466.49 2134.18C5455.73 2120.42 5462.51 1986.48 5461.22 1960.69C5460.76 1951.53 5463.86 1949.01 5475.48 1943.15Z" fill="white"/>
<path d="M4921.36 2475.6C5011.16 2472.4 4977.68 2521.14 4969.55 2549.28C4969.27 2550.25 4981.15 2569.25 4982.05 2574.74L4978.31 2576.54L4971.21 2576.24C4961.96 2572.61 4959.88 2568.89 4954.4 2563.11C4950.84 2557.64 4945.68 2548.5 4933.87 2549.4C4921.98 2556.26 4921.9 2573.3 4908.67 2576.62L4905.67 2574.63C4901.08 2551.22 4903.82 2513.46 4905.73 2489.03C4906.26 2482.32 4912.35 2479.48 4921.36 2475.6ZM4951.33 2531.96C4964.4 2523.67 4970.52 2503.07 4952.95 2495.05C4944.35 2494.14 4943.64 2494.23 4934.8 2494.4C4915.75 2502.6 4914.41 2515.57 4927.48 2526.25C4932.82 2530.62 4942.63 2531 4951.33 2531.96Z" fill="white"/>
<path d="M2828.01 1658.84C2861.12 1660.02 2858.94 1677.14 2856.99 1693.01C2851.67 1736.26 2867.65 1797.21 2848.76 1837.83C2839.32 1839.8 2837.27 1840.1 2830.97 1836.24C2823.77 1818.51 2819.73 1669.58 2828.01 1658.84Z" fill="white"/>
<path d="M901.087 3107.94C952.86 3108.7 1254.15 3105.67 1275.58 3113.44C1279.6 3114.9 1278.36 3114.73 1279.36 3117.67L1273.43 3121.99C1266.54 3122.5 1258.25 3123.11 1251.29 3123.1C1157.67 3122.98 1064.07 3122.59 970.458 3122.94C950.716 3123.01 930.605 3123.17 910.968 3122.21C900.783 3121.71 902.42 3121.78 895.763 3118.33C895.364 3112.1 895.367 3114.12 901.087 3107.94Z" fill="white"/>
<path d="M3183.7 2545.1C3185.45 2532.73 3177.05 2482.49 3197.89 2480.36C3212.57 2488.13 3206.22 2562.43 3204.07 2576.89C3171.79 2577.45 3153.05 2529.33 3137.88 2514.27C3137.93 2525.67 3140.94 2568.25 3131.57 2574.92L3126.84 2575.19C3112.37 2567 3116.28 2491.49 3120.54 2477.79C3148.8 2483.97 3166.16 2526.73 3183.7 2545.1Z" fill="white"/>
<path d="M1774.78 2476.75C1778.5 2477.54 1783.64 2478.51 1785.66 2480.61C1805.51 2501.2 1820.89 2522.93 1840.29 2543.81C1840.52 2531.74 1834.2 2485.77 1848.04 2479.78C1868.48 2489.87 1857.3 2561.57 1855.01 2578.93C1829.79 2580.3 1803.14 2527.91 1793.21 2514.66C1791.01 2525.81 1796.37 2573.02 1783.12 2578.01C1765.09 2568.33 1766.44 2494.05 1774.78 2476.75Z" fill="white"/>
<path d="M5507.6 2477.76C5512.22 2478.42 5520.08 2479.82 5520.18 2483.1C5520.63 2496.66 5533.98 2575.14 5507.38 2578.34C5493.01 2572.11 5469.43 2529.52 5457.64 2517.22L5455.54 2515.04C5449.86 2535.17 5457.61 2558.4 5446.74 2577.36L5445.2 2579.61L5440.48 2578.98C5430.15 2567.25 5427.59 2489.25 5443.05 2481.13C5456.62 2484 5491.4 2531.64 5499.14 2541.47C5502.51 2525.55 5498.85 2487.81 5507.6 2477.76Z" fill="white"/>
<path d="M1602.9 3157.23C1595.56 3158.4 1599.01 3158.51 1592.41 3156.51C1580.21 3142.48 1576.44 3078.43 1596.31 3068.99L1602.01 3069.72C1621.49 3080.33 1614.52 3099.34 1632.04 3115.68L1635.95 3116.06C1649 3105.47 1647.23 3075.85 1667.34 3070.88C1671.63 3072.19 1677.17 3073.7 1677.86 3076.9C1680.6 3089.48 1691.6 3155.7 1672.31 3160.6L1667.68 3158.65C1659.84 3140.43 1664.77 3124.56 1663.66 3104.82C1656.57 3115.79 1645.55 3139.84 1628.88 3144.54C1619.69 3142.57 1622.56 3143.15 1616.22 3137.32C1616.45 3128.23 1609.66 3115.51 1603.8 3107.12L1600.6 3107.41C1595.23 3119.07 1602.46 3143.24 1602.9 3157.23Z" fill="white"/>
<path d="M1063.34 2477.85C1064.66 2478.18 1070.78 2479.6 1071.43 2480.22C1083.45 2491.81 1126.28 2571.81 1115.36 2578.82C1099.69 2575.8 1097.08 2563.73 1078.03 2557.72C1032.69 2556.52 1041.14 2573.79 1019.07 2576.25C1012.27 2560.96 1050.15 2493.31 1063.34 2477.85Z" fill="white"/>
<path d="M5339.59 1660.7C5349.44 1662.8 5356.35 1665.75 5356.66 1672.09C5358.49 1714.6 5356.67 1757.27 5356.61 1799.82C5356.59 1814.14 5360.36 1831.62 5343.5 1842.91C5339.95 1841.35 5335.65 1839.67 5332.74 1837.75C5323.71 1831.79 5326.78 1705.23 5326.88 1686.51C5326.94 1675.16 5324.42 1669.04 5339.59 1660.7Z" fill="white"/>
<path d="M1486.86 2477.76C1505.6 2477.5 1541.02 2475.99 1552.65 2485.02C1549.92 2492.68 1509.05 2499.48 1495.43 2502.34C1492.33 2508.21 1492.43 2510.1 1496.78 2515.04C1515.63 2522.99 1539.5 2514.36 1546.8 2527.53C1539.47 2543.63 1472.24 2530.81 1500.27 2561.75C1518.73 2565.76 1529.87 2563.79 1549.9 2566.35L1553.42 2570.11C1545.04 2584.4 1493.55 2585.58 1481.34 2574.72C1463.67 2559.02 1471.06 2530.63 1471.81 2512.82C1472.37 2499.62 1464.08 2485.59 1486.86 2477.76Z" fill="white"/>
<path d="M3491.86 3068.05C3512.64 3071.97 3515.23 3106.98 3524.5 3121.27C3539.34 3102.42 3553.54 3083.41 3567.08 3064.26C3576.67 3076.65 3580.47 3084.39 3582.02 3098.13C3583.33 3109.65 3585.04 3144.34 3571.27 3153.17L3567.59 3151.61C3562 3143.46 3563.23 3137.04 3563.21 3128.3L3562.88 3106.02C3547.16 3123.32 3542.54 3133 3535.17 3152.04C3524.84 3141.57 3511.43 3123.58 3502.19 3112.24C3501.75 3121.31 3502.22 3153.88 3488.03 3157.59C3476.57 3145.48 3481.38 3080.22 3491.86 3068.05Z" fill="white"/>
<path d="M3185.88 3067.25C3260.66 3070.35 3235.08 3104.29 3228.58 3131.76C3226.81 3139.24 3236.27 3149.11 3230.97 3159.26L3226.69 3160.53C3218.3 3156.5 3213.29 3145.51 3209.33 3139.15C3205.04 3135.06 3205.52 3135.27 3198.25 3132.8L3191.4 3133.87C3185.05 3137.29 3179.15 3152.85 3173.37 3160.2C3170.79 3157.55 3168.34 3124.53 3168.27 3119.02C3168.04 3101.87 3157.47 3078.24 3185.88 3067.25ZM3207.77 3116.81C3224.91 3105.28 3225.94 3090.94 3198.26 3084.28C3181.62 3094.1 3176.5 3104.42 3195.29 3114.6L3207.77 3116.81Z" fill="white"/>
<path d="M4848.44 3108.59C4875.39 3108.54 5040.94 3104.5 5051.04 3113.75C5036.93 3125.63 5001.02 3121.93 4979.19 3121.82L4865.56 3121.63C4832.71 3121.67 4681.44 3124.43 4661.33 3116.88L4662.11 3114.64C4691.97 3105.27 4807.33 3108.86 4848.44 3108.59Z" fill="white"/>
<path d="M3445.5 2478.1C3467.11 2484.88 3494.52 2529.93 3510 2545.85C3512.47 2531.27 3508.24 2492.31 3514.83 2482.01L3519.21 2481.07C3535.62 2488.65 3530.59 2564.85 3521.12 2575.56L3517.1 2577.46C3493.67 2573.14 3477.49 2523.4 3463.09 2519.1C3448.4 2528.71 3462.45 2562.1 3454.58 2576.4L3446.93 2578.33L3441.67 2577.04C3434.22 2568.3 3440.47 2493.16 3445.5 2478.1Z" fill="white"/>
<path d="M5343.65 2479.48C5363.78 2478.68 5406.68 2475.59 5412.53 2488.89C5402.8 2500.38 5377.22 2489.15 5358.9 2498.07C5355.32 2502.71 5356.42 2512.8 5356.41 2518.32C5372.77 2520.18 5410.52 2519.49 5416.63 2527.37C5408.06 2535.95 5373.46 2538.5 5356.85 2538.95L5358.26 2557.72C5381.55 2566.92 5391.82 2559.27 5416.31 2563.05C5423.08 2567.54 5421.52 2565.09 5422.34 2570.38C5407.89 2586.89 5340.38 2584.84 5339.18 2568.88C5337.81 2550.78 5329.54 2492.94 5343.65 2479.48Z" fill="white"/>
<path d="M5261.27 2543.66C5269.63 2527.88 5280.49 2486.52 5301.37 2479.92C5315.38 2486.36 5316.95 2519.66 5318.75 2530.79C5321.07 2545.18 5325.86 2566.75 5307.54 2578.15L5303.19 2578.24C5295.57 2567.69 5307 2528.34 5297.32 2521.16C5283.72 2531.98 5279.46 2558.72 5262.68 2563.79C5245.81 2560.06 5227.49 2528.77 5227.32 2519.47L5228.52 2515.15C5224.06 2509.18 5227.74 2511.63 5215.17 2508.48C5213.46 2502.6 5215.51 2485.73 5214.89 2477.22C5239.81 2484.56 5254.65 2527.4 5261.27 2543.66Z" fill="white"/>
<path d="M4353.15 3068.13C4362.26 3069.62 4368.97 3072.22 4370.32 3077.83C4374.39 3094.72 4380.63 3142.45 4367.31 3156.19C4359.75 3152.64 4360.06 3113.64 4358.59 3103.83C4350.26 3113.93 4338.7 3141.26 4327.47 3145.81C4316.39 3139.05 4309.97 3121.48 4301.44 3119.35L4300.97 3123.32C4298.35 3131.21 4295.22 3150.81 4290.27 3156.15L4285.22 3157.01C4276.66 3149.65 4274.49 3077.69 4291.28 3070.88C4293.36 3071.48 4295.44 3072.07 4297.52 3072.66C4304.87 3082.26 4321.62 3113.1 4326.34 3121.12C4335.96 3103.57 4344.9 3085.9 4353.15 3068.13Z" fill="white"/>
<path d="M2796.49 2476.18C2812.45 2476.44 2842.17 2477.7 2848.58 2487.72L2846.18 2490.39C2833.38 2495.09 2813.16 2496.78 2797.52 2498.83C2792.06 2504.8 2791.99 2513.27 2790.87 2520.22C2804.68 2519.75 2817.5 2519.33 2831.39 2519.26C2839.14 2522.16 2836.44 2520.22 2839.17 2525.51C2835 2533.76 2810.17 2537.45 2794.29 2543.19C2786.77 2551.11 2790.35 2556.11 2804.65 2560.91C2823.3 2560.72 2836.97 2559.99 2847.23 2570.08C2844.54 2586.18 2783.08 2583.6 2778.47 2575.49C2765.68 2552.99 2769.75 2514.96 2776.08 2491.43C2778.44 2482.64 2784.78 2479.46 2796.49 2476.18Z" fill="white"/>
<path d="M1675.81 2479.1C1698.78 2478.1 1743.8 2473.33 1751.01 2488.09C1739.66 2501.74 1686.81 2486.6 1692.4 2509.15C1695.2 2520.44 1733.66 2522.28 1751.49 2527.97L1746.73 2532.41C1724.38 2538.81 1720.89 2537.97 1695.67 2537.61C1695.57 2543.58 1695.94 2549.47 1696.24 2555.44C1711.12 2567.49 1724.88 2563.12 1748.07 2565.29C1753.79 2568.76 1752.28 2566.72 1752.01 2571.77C1737.5 2583.7 1699.16 2582.84 1681.24 2575.1C1673.07 2564.51 1668.6 2489.91 1675.81 2479.1Z" fill="white"/>
<path d="M5137.01 2479.55C5140.11 2480.15 5144.2 2481.06 5145.72 2482.67C5158.22 2495.92 5194.71 2567.95 5190.78 2577.12C5169.21 2575.6 5180.27 2564.38 5151.7 2557.02C5137.92 2555.86 5129.26 2553.54 5119.3 2559.33C5116.08 2567.59 5115.58 2572.77 5102.97 2577.74L5098.32 2576.77C5089.8 2563.93 5126.97 2496.06 5137.01 2479.55ZM5141.04 2540.95C5148.17 2537.59 5152.46 2537.14 5152.14 2531.4C5151.82 2525.58 5145.94 2511.02 5137.18 2507.66C5132.33 2516.73 5121.67 2531.38 5128.42 2539.73C5134.64 2541.06 5134.32 2540.94 5141.04 2540.95Z" fill="white"/>
<path d="M3365.56 2476.31C3381.89 2476.63 3415.67 2477.11 3414.82 2490.2C3403.18 2495.28 3387.25 2493.24 3369.63 2498.16C3364.05 2502.24 3363.63 2513.42 3362.61 2519.16C3378.34 2520.84 3408.06 2520.45 3405.04 2532.39C3392.82 2539.49 3380.73 2539.1 3363.63 2540.03C3363.47 2543.69 3363.4 2547.34 3363.43 2551C3363.57 2558.91 3364.52 2559.5 3373.77 2564.46C3391.6 2564.51 3411.33 2563.1 3421.04 2573.15L3416.94 2576.83C3400.92 2581.08 3363.32 2584.31 3349.23 2576.9C3339.86 2563.26 3339.22 2503 3346.55 2486.68C3349.13 2480.96 3356.55 2478.61 3365.56 2476.31Z" fill="white"/>
<path d="M1417.21 2475.62C1435.21 2478.09 1457.72 2486.41 1451.58 2497.89C1436.23 2502.22 1417.28 2494.68 1408.67 2502.65C1411.84 2514.35 1436.12 2525.25 1451.7 2534.05C1460.41 2556.77 1464.91 2578.2 1412.25 2580.67C1410.03 2580.26 1407.83 2579.84 1405.65 2579.39C1387.3 2575.66 1376.57 2562.63 1382.97 2553.52C1398.4 2552.38 1412.7 2565.58 1431.62 2558.6C1440.54 2545.54 1392.69 2528.14 1380.25 2510.6C1382.1 2503.96 1386.33 2495.32 1389.23 2488.62C1400.57 2481.86 1402.94 2480.19 1417.21 2475.62Z" fill="white"/>
<path d="M4798.65 2476.08C4825.69 2482.95 4787.6 2559.53 4837.92 2563.02C4878.65 2554.63 4855.49 2491.73 4865.94 2479.46L4872.42 2478.29L4876.8 2480.36C4882.24 2487.37 4881.72 2490.52 4882.56 2498.16C4887.74 2516.12 4885.79 2524.6 4882.72 2543.61C4881.7 2568.79 4836.69 2596.14 4803.06 2566.24C4778.15 2544.09 4788.53 2499.49 4798.65 2476.08Z" fill="white"/>
<path d="M3668.38 2388.2C3675.09 2390.39 3674.7 2390.17 3678.41 2393.96C3681.39 2418.96 3684.04 2651.06 3675.13 2662.81C3673.31 2661.91 3671.8 2661.35 3670.62 2660.17C3660.17 2649.71 3657.97 2412.02 3668.38 2388.2Z" fill="white"/>
<path d="M2029.96 2390.2L2034.69 2392.5C2045.78 2406.96 2040.25 2644.64 2034.19 2667.75C2029.19 2665.39 2026.76 2661.98 2026.44 2658.48C2023.13 2621.74 2023.86 2582.57 2023.59 2545.88L2023.13 2451.88C2023.14 2439.78 2019.91 2397.39 2029.96 2390.2Z" fill="white"/>
<path d="M4690.69 2477.97C4716.08 2487.35 4696.76 2532.75 4707.9 2548.68C4714.04 2557.47 4722.01 2563.16 4739.06 2558.98C4767.07 2540.93 4742.66 2488.67 4760.65 2481.05C4771.51 2485.63 4772.42 2494.74 4774.29 2501.92C4776.05 2524.83 4780.66 2553.66 4754.49 2573.19C4736.01 2586.98 4711 2577.21 4694.7 2568.63C4686.33 2552.04 4678.38 2491.15 4690.69 2477.97Z" fill="white"/>
<path d="M4392.83 2478.73C4413.2 2480.8 4427.36 2478.88 4448.11 2481.76C4455.75 2485.32 4453.13 2483.12 4455.56 2488.82C4446.53 2500.94 4424.97 2489.16 4408.21 2496.35C4404.49 2501.26 4405.39 2514.87 4405.25 2520.91C4419.59 2521.07 4431.22 2520.82 4445.26 2522.56C4452.91 2528.17 4451.35 2525.22 4452.33 2531.29C4440.09 2540.13 4416.87 2534.97 4405.66 2539.74C4399.92 2548.35 4403.13 2554.53 4407.33 2563.31C4423.98 2562.55 4440.37 2560.41 4454.21 2564.93C4459.53 2570.01 4458.63 2567.37 4457.23 2573.1C4442.27 2584.84 4394.02 2584.29 4389.58 2573C4381.28 2551.9 4379.26 2496.84 4392.83 2478.73Z" fill="white"/>
<path d="M5012.14 2477.09C5149.06 2469.95 5037.48 2525.04 5030.67 2554.39C5038.8 2568.28 5060.19 2558.26 5080.57 2565.06C5086.03 2570.04 5085.01 2567.43 5083.97 2573.11C5076.63 2578.21 5081.28 2576.25 5068.27 2578.17C4928.37 2590.07 5056.37 2522.19 5048.51 2498.43C5034.45 2491.76 5003.31 2499.05 4997.24 2485.24C5000.9 2480.21 5003.7 2479.87 5012.14 2477.09Z" fill="white"/>
<path d="M1506.23 3070.04C1513.72 3070.67 1513.5 3070.75 1520.37 3072.63C1532.76 3082.76 1553.82 3144 1555.89 3157.99L1550.66 3159.07C1533.79 3153.1 1536.56 3142.45 1526.52 3138.22L1523.61 3139.31C1513.06 3142.14 1509.61 3142.48 1498.18 3142.79C1489.33 3143.03 1495.33 3152.33 1481.78 3159.71L1476.07 3159.5C1461.33 3148.53 1499.52 3086.5 1506.23 3070.04Z" fill="white"/>
<path d="M2745.25 2476.32C2752.21 2478.42 2750 2477.34 2754.2 2481.18C2756.1 2499.27 2732.7 2551.08 2719.24 2569.7C2716.46 2573.54 2706.63 2580.02 2701.6 2583.31C2687.33 2566.37 2672.59 2532.27 2668.17 2513.19C2665.78 2503.59 2655.83 2486.78 2665.7 2479.37L2671.91 2479.68C2695.12 2491.06 2695.2 2537.11 2708.12 2548.53C2720.64 2541.37 2731.59 2491.29 2745.25 2476.32Z" fill="white"/>
<path d="M1735.07 3069.32C1750.79 3068.16 1778.17 3066.59 1778.04 3078.93C1764.18 3090.96 1749.96 3082.98 1729.26 3089.2C1725.92 3093.39 1726.14 3093.09 1727.91 3097.6C1740.2 3106.15 1764.52 3099.95 1772.65 3115C1767.77 3125.66 1744.91 3123.2 1729.78 3131.67L1729.88 3134.65C1738.3 3139.79 1739.75 3139.79 1751.78 3142.48C1763.14 3143.37 1772.75 3146.36 1780 3151.26C1781.05 3155.81 1781.75 3153.69 1777.48 3157.8C1730.21 3174.5 1704.85 3148.54 1713.83 3124.73C1720.91 3105.96 1693.38 3081.72 1735.07 3069.32Z" fill="white"/>
<path d="M1235.82 2478.02C1262.05 2482.54 1266.25 2533.49 1278.19 2544.16C1298.67 2532.45 1292.01 2484.62 1321.08 2478.78C1330.01 2485.36 1320.88 2504.4 1318.54 2512.85C1317.74 2520.56 1298.14 2569.11 1286.36 2576.08C1283.38 2577.84 1282.43 2577.11 1277.52 2576.82C1262.41 2568.59 1230.34 2490.93 1235.82 2478.02Z" fill="white"/>
<path d="M3984.47 3068.04C4001.33 3067.94 4026.44 3066.74 4032.85 3077.97C4026.18 3089.58 4003.37 3087.15 3985.69 3086.83L3984.31 3106.47C4000.16 3106.15 4020.42 3103.48 4027.61 3112.1C4021.46 3125.66 4001.98 3116.09 3984.77 3125.34C3981.73 3131.72 3987.45 3137.06 3992.89 3142.68C4001.94 3142.88 4008.76 3143.12 4017.75 3143.68C4028.46 3148.11 4024.88 3145.41 4030.03 3151.62C4022.13 3166.65 3983.51 3164.95 3974.01 3154.23C3956.07 3133.98 3965.53 3099.56 3969.69 3077.32C3970.63 3072.26 3977.66 3070.15 3984.47 3068.04Z" fill="white"/>
<path d="M2948.59 3069.46C2951.3 3069.86 2956.89 3070.52 2958.3 3072.05C2971.62 3086.59 2959.05 3133.85 2981.84 3144.46C3015.79 3144.79 2991.27 3083.64 3016.63 3071.28L3022.18 3072.73C3026.74 3076.59 3025.44 3082.09 3025.51 3087.02L3025.12 3102.41C3024.7 3115.23 3019.17 3183.63 2960.14 3150.93C2940.54 3140.08 2942.8 3086.41 2948.59 3069.46Z" fill="white"/>
<path d="M3120.15 3067.77L3128.44 3069.64C3148.76 3087.16 3142.67 3178.99 3074.18 3154.26C3049.57 3145.38 3052.26 3109.89 3052.19 3092.58C3052.31 3085.62 3052.75 3072.45 3066.76 3069.28C3084.45 3080.88 3060.77 3130.55 3090.4 3145.29C3124.89 3146.04 3119.07 3082.32 3120.15 3067.77Z" fill="white"/>
<path d="M3620.84 3067.5C3639.79 3068.05 3661.89 3067.03 3674.92 3074.25C3676.93 3079.84 3677.02 3076.96 3672.26 3083.07C3663.03 3087.94 3652.14 3086.38 3639.61 3089.29C3627.27 3107.56 3656.39 3101.2 3668.74 3110.55C3671.36 3115.54 3671.51 3115.17 3669.45 3120.21C3654.99 3126.55 3645.91 3119.13 3635.08 3128.65C3634.63 3134.79 3636.41 3136.9 3639.48 3142.95C3653.08 3142.86 3683.38 3142.86 3673.55 3155.26C3659.64 3160.21 3622.91 3162.64 3620.26 3152.38C3615.47 3133.91 3610.36 3083.82 3620.84 3067.5Z" fill="white"/>
<path d="M2118.99 3141.06C2112.98 3147.05 2104.86 3156.55 2095.47 3160.35L2092.06 3158.76C2089.6 3143.42 2116.66 3087.54 2128.38 3072.25L2133.57 3072.49C2150.79 3079.95 2161.44 3111.45 2166.77 3124.22C2166.27 3129.29 2167.37 3138.37 2162.8 3142.34L2153.47 3143.06L2149.99 3141.27C2140.34 3139.56 2129.35 3140.6 2118.99 3141.06Z" fill="white"/>
<path d="M2488.76 3069.25C2504.78 3068.53 2535.67 3067.5 2540.25 3078.87C2532.32 3085.26 2509.88 3087.32 2495.73 3089.43C2478.41 3109.88 2521.74 3104.7 2532.24 3108.59C2536.09 3112.7 2534.93 3113.02 2533.55 3117.79C2519.44 3125.41 2499.26 3118.74 2491.76 3131.27C2493.28 3136.14 2493.05 3137.47 2497.44 3141.79C2514.04 3142.35 2538.95 3142.98 2544.73 3153C2534 3162.27 2503 3161.62 2485.29 3162.25C2483.14 3158.37 2481.3 3154.43 2479.78 3150.45C2474.65 3136.72 2475.05 3093.98 2479.46 3078.97C2480.18 3076.5 2486.02 3071.51 2488.76 3069.25Z" fill="white"/>
<path d="M1403.96 3068.67C1422.88 3068.67 1449.95 3078.73 1440.2 3090.13C1430.21 3091.77 1420.04 3088.9 1406.55 3087.77L1403.91 3089.71C1409.54 3099.59 1426.65 3111.1 1440.24 3118.26L1447.84 3136.35L1439.72 3152.61C1432.52 3156.93 1424 3160.49 1415.73 3164.2C1396.29 3159.45 1370.97 3151.44 1384.32 3137.4C1399.05 3135.5 1409.16 3143.16 1422.02 3141.32L1424.37 3138.58C1421.15 3116.21 1338.28 3098.93 1403.96 3068.67Z" fill="white"/>
<path d="M2607.41 3066.23C2617.17 3067.32 2626.02 3068.87 2633.36 3072.5C2637.03 3084.2 2601.33 3082.2 2588.62 3095.81C2589.54 3115.92 2620.03 3100.76 2632.25 3111.4C2629.05 3127.02 2600.63 3117.25 2586.77 3131.1C2590.87 3138.57 2602.78 3140.44 2614.82 3143.09C2628.44 3144.38 2632.99 3146.7 2633.71 3153.79C2623.06 3164.45 2585.32 3166.03 2578.96 3152.84C2568.31 3130.76 2566.05 3099.17 2579.71 3077.28C2584.28 3069.95 2595.54 3068.4 2607.41 3066.23Z" fill="white"/>
<path d="M4280.62 2477.97C4301.28 2481.9 4317.39 2536.31 4324.43 2550.23C4330.46 2534.32 4342.77 2491.56 4359.88 2480.71L4362.56 2482.15C4365.89 2490.76 4362.81 2498.14 4360.71 2506.96C4355.17 2518.63 4341.92 2573.96 4318.11 2574.74C4300.21 2566.54 4276.4 2491.21 4280.62 2477.97Z" fill="white"/>
<path d="M3285.55 3068.18C3305.31 3067.91 3324.6 3065.65 3338.03 3074.71C3351.37 3095.23 3279.71 3124.69 3299.11 3140.88C3315.91 3145.84 3327.63 3141.36 3336.86 3149.13C3335.81 3156.22 3337.99 3153.06 3329.35 3158.8C3312.58 3159.13 3288.46 3160.99 3277.17 3154.03C3248.92 3136.62 3308.62 3106.15 3308.95 3090.69C3300.44 3084.54 3285.28 3086.55 3266.26 3080.37C3262.37 3076.39 3262.5 3078.39 3264.66 3074.29C3273.24 3070.25 3274.58 3070.25 3285.55 3068.18Z" fill="white"/>
<path d="M2041.56 3127.41C2042.66 3111.45 2040.84 3082.32 2050.29 3068.52L2049.56 3069.69L2053.27 3068.9L2050.02 3069.18L2051.71 3067.98L2054.86 3071.42L2049.46 3070.54L2055.3 3072.28C2061.78 3091 2064.04 3139.91 2053.17 3156.85L2049.38 3158.39C2032.2 3152.09 2007.11 3115.59 1998.84 3103.43C1998.06 3115.28 1997.55 3127.46 1996.46 3139.26L1990.23 3138.34C1986.12 3129.99 1986.48 3078.54 1992.01 3070.8C2009.4 3085.88 2030.61 3110.55 2041.56 3127.41Z" fill="white"/>
<path d="M4433.02 3069.11C4451.21 3069.05 4457.44 3071.82 4467.38 3079.71C4469.32 3090.78 4445.25 3084.63 4431.39 3094.95L4432.69 3098.65C4440.84 3105.25 4451.81 3107.85 4464.52 3111.96C4477.47 3135.24 4479 3147.85 4442.07 3164.09C4425.7 3160.07 4413.27 3152.05 4408.84 3142.42C4410.82 3137.78 4408.68 3139.69 4416.04 3136.68C4428.22 3140.35 4437.4 3144.86 4450.39 3141.41C4461.12 3127.22 4432.15 3118.72 4418.28 3108.7C4398.6 3094.49 4407.58 3078.74 4433.02 3069.11Z" fill="white"/>
<path d="M3423.28 3141.39C3369.26 3138.16 3401.44 3143.42 3378.37 3157.98L3372.85 3157.99C3370.41 3156.62 3366.68 3155.13 3366.85 3153.61C3368.44 3139.74 3395.97 3081 3408.42 3071.97L3413.75 3071.75L3419.31 3074.83C3418.1 3084.8 3416.98 3094.1 3419.05 3104.13L3416.66 3105.51C3407.96 3110.63 3406.8 3110.95 3402.49 3117.27L3403.15 3120.41C3420.21 3125.99 3423.79 3119.04 3437.99 3120.5C3443.12 3130.6 3453.9 3148.04 3450.59 3158.03L3445.91 3158.39C3434.8 3153.44 3430.58 3148.21 3423.28 3141.39Z" fill="white"/>
<path d="M3850.48 3139.09C3842.12 3122.88 3836.03 3097.65 3852.57 3082.16C3883.32 3053.36 3934 3080.58 3936.05 3104.26C3938.46 3121.29 3938.33 3126.88 3927.98 3141.68C3927.85 3136.85 3928.36 3135.15 3925.03 3130.6L3915.36 3128.42C3945.76 3086.68 3844.26 3066.73 3860.79 3120.91L3852.15 3119C3847.66 3125.37 3852.2 3130.86 3850.48 3139.09Z" fill="white"/>
<path d="M3760.25 3066.3C3774.98 3067.2 3819.69 3067.75 3823.33 3077.52C3817.6 3083.52 3797.29 3089.47 3796.56 3091.23C3791.76 3102.79 3796.18 3137.87 3796.39 3149.93C3796.09 3155.6 3795.67 3156.72 3787.9 3159.29C3766.23 3152.2 3783.29 3099.63 3771.58 3089.23C3750.49 3083.12 3747.93 3079.03 3760.25 3066.3Z" fill="white"/>
<path d="M4544.22 3066.71C4554.53 3067.72 4556.09 3067.57 4564.16 3071.47C4570.45 3081.4 4553.54 3085.68 4540.19 3089.99C4539.03 3103.3 4543.1 3152.16 4529.34 3159.59L4522.91 3158.51C4521.05 3135.25 4520.97 3110.88 4520.62 3087.54C4519.64 3087.31 4518.66 3087.08 4517.67 3086.86L4513.26 3085.77C4502.2 3083.08 4495.61 3082.29 4495.01 3074.93C4507.11 3067.12 4525.85 3067.63 4544.22 3066.71Z" fill="white"/>
<path d="M3076.41 2477.49L3082.76 2478.35C3085.09 2479.68 3089.75 2482.38 3090.59 2484.08C3097.65 2498.22 3096.54 2566.52 3088.89 2576.91C3078.01 2577.59 3078.75 2577.3 3071.63 2573.71C3067.44 2564.87 3075.19 2489.98 3076.41 2477.49Z" fill="white"/>
<path d="M1344.86 2477.91C1347.52 2478.41 1351.91 2479.65 1354.6 2480.35C1368.35 2491.19 1360.42 2558.48 1361.12 2576.8L1353.27 2577.64L1348.45 2575.28C1340.23 2564.45 1340.27 2488.22 1344.86 2477.91Z" fill="white"/>
<path d="M4560.66 2503.76C4567.66 2503.61 4565.95 2503.14 4573.62 2500.38C4573.33 2522.05 4570.77 2550.04 4580.31 2570.33C4568.89 2574.34 4567.3 2573.8 4553 2573.11C4551.49 2566.87 4543.6 2553.76 4539.91 2547.09C4552.78 2532.39 4560.5 2520.29 4560.66 2503.76Z" fill="#4D4D4D" fill-opacity="0.0117647"/>
<path d="M3850.48 3139.09C3852.2 3130.86 3847.66 3125.37 3852.15 3119L3860.79 3120.91C3864.99 3130.68 3868.66 3139.54 3889.88 3140.63C3904.51 3138.17 3907.4 3135.75 3915.36 3128.42L3925.03 3130.6C3928.36 3135.15 3927.85 3136.85 3927.98 3141.68C3921.68 3147.27 3905.71 3157.33 3896.45 3165C3872.62 3156.69 3861.49 3153.27 3850.48 3139.09Z" fill="white"/>
<path d="M5227.32 2519.47L5225.06 2519.65C5213.25 2531.8 5239.29 2568.21 5217.25 2576.95C5199.58 2568.4 5201.04 2489.23 5214.89 2477.22C5215.51 2485.73 5213.46 2502.6 5215.17 2508.48C5227.74 2511.63 5224.06 2509.18 5228.52 2515.15L5227.32 2519.47Z" fill="white"/>
<path d="M1270.07 1642.43L1273.4 1640.61C1296.18 1628.05 1332.76 1599.23 1350.26 1591.66L1353.87 1591.94C1352.52 1602.36 1305.55 1642.81 1293.83 1653.02C1287.81 1650.87 1276.62 1645.31 1270.07 1642.43Z" fill="#8A8A8A" fill-opacity="0.0352941"/>
<path d="M1996.46 3139.26C1997.52 3149.99 1998.41 3153.41 1991.65 3163.32L1987.92 3162.38C1985.16 3158.35 1978.56 3144.93 1979.6 3140.72C1982.51 3129 1975.52 3074.6 1987.92 3069.27L1992.01 3070.8C1986.48 3078.54 1986.12 3129.99 1990.23 3138.34L1996.46 3139.26Z" fill="white"/>
<path d="M3419.31 3074.83C3424.46 3089.24 3429.75 3106.79 3437.99 3120.5C3423.79 3119.04 3420.21 3125.99 3403.15 3120.41L3402.49 3117.27C3406.8 3110.95 3407.96 3110.63 3416.66 3105.51L3419.05 3104.13C3416.98 3094.1 3418.1 3084.8 3419.31 3074.83Z" fill="white"/>
<path d="M1602.9 3157.23C1602.46 3143.24 1595.23 3119.07 1600.6 3107.41L1603.8 3107.12C1609.66 3115.51 1616.45 3128.23 1616.22 3137.32L1610.16 3137.14C1605.56 3145.48 1612.59 3150.31 1602.9 3157.23Z" fill="#F2F4F4" fill-opacity="0.0509804"/>
<path d="M2166.77 3124.22C2169.98 3133 2178.83 3152.45 2171.4 3160.28C2160.06 3159.24 2155.11 3148.57 2153.47 3143.06L2162.8 3142.34C2167.37 3138.37 2166.27 3129.29 2166.77 3124.22Z" fill="white"/>
<path d="M5726 1336.96C5701.36 1342.5 5667.53 1342.43 5640.78 1342.53L5289.97 1342.38C5228.02 1342.24 5164.48 1342.36 5102.58 1341.09C5091.51 1340.86 5087.96 1340.92 5081.7 1337.5C5073.63 1326.24 5080.52 1076.55 5080.44 1046.66L5079.09 710.189C5078.89 677.592 5072.49 501.059 5085.81 482.496C5116.43 476.56 5397.77 478.994 5449.22 478.95L5606.19 478.987C5625.89 479.025 5697.97 477.502 5709.57 483.427C5720.37 499.047 5716.55 615.773 5710.56 633.741L5709.83 635.83C5680.83 637.168 5628.97 636.402 5597.94 636.41L5394.1 636.477C5365.11 636.503 5286.43 635.382 5262.19 640.461C5258.72 642.618 5256.73 645.286 5256.69 648.215C5256 705.402 5254.63 762.682 5255.53 819.873C5255.61 825.179 5256.72 827.898 5262.47 831.748C5317.2 844.696 5627.43 823.971 5658.48 841.913C5671.35 859.277 5664.29 964.269 5656.49 986.184C5526.16 989.557 5392.1 985.417 5256.6 989.07C5254.31 1011.03 5252.15 1169.93 5260.1 1182.07C5283.7 1188.51 5328.84 1185.4 5355.37 1185.37C5423.99 1185.28 5679.46 1180.57 5722.87 1191.13C5723.92 1191.39 5724.96 1191.66 5726 1191.92V1336.96Z" fill="white"/>
<path d="M943.931 0H1067.01C1094.04 6.1039 1135.13 6.0693 1165.75 11.6244C1273.55 31.181 1378.9 67.5965 1465.61 108.49C1454.1 112.773 1456.52 113.908 1456.82 121.627C1340.72 74.7948 1170.16 53.1228 1028.71 64.8389C812.343 82.76 617.897 172.449 493.633 269.604C172.515 520.671 88.5902 867.964 132.931 1168.24C139.197 1210.67 145.608 1252.43 157.661 1294.38C165.795 1322.68 177.426 1350.69 185.899 1378.75L180.142 1380.24C165.229 1375.54 171.876 1369.62 158.423 1365.94C134.634 1366.45 111.887 1370.44 94.5917 1380C85.3755 1385.09 80.3826 1393.37 71.1473 1397.03C67.3465 1388.77 63.7598 1378.76 61.2093 1370.25C39.2549 1297.07 17.9635 1222.96 7.12 1149.01C5.3628 1137.03 4.98162 1125.45 0 1113.83V912.093C4.66374 902.893 9.4288 862.908 11.5831 851.314C18.3161 817.482 26.0857 783.716 34.8886 750.029C102.013 494.923 290.919 181.452 719.146 42.4142C736.213 36.8731 755.082 31.5656 773.262 27.1979C805.798 19.3343 839.56 13.1214 874.13 8.63584C895.849 5.86088 920.578 3.93541 941.402 0.439562L943.931 0Z" fill="white"/>
<path d="M5726 1510.76C5710.07 1517.67 5610.48 1514.78 5585.71 1514.75L5341.25 1514.69L4533.1 1515.06L3120.33 1515.42L2588.33 1515.5C2489.76 1515.5 2390.89 1515.32 2292.31 1515.17C2274.89 1515.14 2258.32 1514 2244.58 1507.89C2231.48 1491.47 2273.91 1489.73 2292.59 1489.64L4237.36 1491.3L5073.04 1491.48C5278.81 1491.39 5484.88 1491.43 5690.64 1493.38C5704.23 1493.51 5713.37 1493.47 5726 1496.59V1510.76Z" fill="white"/>
<path d="M71.1475 1397.03C80.3828 1393.37 85.3757 1385.09 94.5919 1380C111.887 1370.44 134.634 1366.45 158.423 1365.94C171.876 1369.62 165.229 1375.54 180.142 1380.24L185.899 1378.75C266.084 1587.32 415.027 1826.16 674.479 1987.83C689.788 1996.62 749.256 2024.61 750.779 2032.62L748.349 2035.43C729.047 2037.9 666.461 2009.06 650.316 2001.49C319.006 1865.51 152.702 1612.07 71.1475 1397.03Z" fill="white"/>
<path d="M5726 2127.63C5696.41 2136.85 5679.53 2134.78 5648.14 2135.68C5575.77 2137.73 5591.17 2108.84 5591.3 2076.88L5591.9 2004.23C5592.1 1988.25 5592.24 1971.21 5592.2 1955.15C5592.19 1951.72 5597.57 1947.87 5601.34 1945.19C5607.69 1944.65 5614.08 1944.26 5620.5 1944.04C5639.61 1943.44 5706.33 1940.48 5715.7 1949.68C5749.42 1982.82 5655.05 1976.27 5624.4 1976.29C5625.16 1985.99 5624.83 1999.08 5624.61 2009.08C5623.99 2038.07 5679.32 2017.23 5703.7 2029.12C5708.18 2035.55 5711.09 2040.76 5706.06 2047.36C5691.01 2056.75 5664.98 2052.46 5643.83 2055.37C5620.75 2057.01 5617.78 2083.25 5624.79 2092.73C5644.08 2118.8 5685.62 2092.62 5726 2106.7V2127.63Z" fill="white"/>
<path d="M5643.11 1739.18C5668.68 1740.84 5737.64 1733.92 5714.89 1762.12C5699.96 1770.19 5675.97 1766.59 5656.37 1767.68C5617.21 1769.87 5668.41 1839.23 5625.32 1840.06C5620.81 1838.27 5619.03 1837.2 5616.84 1834.27C5609.83 1824.88 5611.6 1694.69 5613.95 1679.1C5614.6 1674.77 5615.47 1667.3 5620.13 1663.59C5624.03 1660.49 5627.25 1659.98 5633.85 1659.47C5652.52 1658.02 5711.43 1657.21 5726 1663.65V1683.82C5702.61 1690.91 5668.18 1686.86 5650.89 1692.51C5637.41 1701.89 5642.53 1726.43 5643.11 1739.18Z" fill="white"/>
<path d="M2322.01 3165C2316.97 3147.91 2323.68 3127.57 2318.39 3109.91C2311.52 3086.98 2321.4 3046.55 2377.05 3077.14C2398.96 3089.18 2390.53 3114.15 2372.2 3128.77C2378.13 3136.5 2391.37 3151.7 2388.12 3159.57C2371.99 3156.97 2354.72 3136.5 2339.88 3127.93C2338.9 3137.12 2334.81 3157.95 2325.78 3165H2322.01ZM2362.42 3115.33C2377 3101.6 2377.54 3087.47 2343.48 3084.03C2335.74 3091.52 2333.51 3108.91 2345.87 3115.4C2353.68 3115.76 2354.76 3115.9 2362.42 3115.33Z" fill="white"/>
<path d="M1873.03 3123.55C1873.26 3110.98 1871.16 3078.91 1881.88 3069.48C1905.64 3082.34 1890.25 3146.09 1879.9 3164.74C1867.12 3145.65 1854.21 3126.21 1835.71 3108.56C1835.2 3119.28 1837.23 3157.75 1829.18 3165H1822.41C1813.64 3157.85 1815.68 3079.75 1822.43 3070.12L1826.8 3070.38C1843.59 3083.45 1850.7 3104 1873.03 3123.55Z" fill="white"/>
<path d="M2728.63 3128.58C2728.48 3115.55 2724.53 3078.66 2741.02 3069.7C2755.81 3077.45 2753.07 3142.78 2743.32 3154.24L2738.38 3155.52C2720 3150.06 2703.75 3115.5 2691.69 3102.35C2689.25 3116.34 2685.75 3154.53 2682.2 3165H2674.12C2670.01 3144.95 2668.08 3091.49 2678.9 3073.6L2682.64 3071.86C2696.5 3078.73 2721.38 3117.16 2728.63 3128.58Z" fill="white"/>
<path d="M2224.42 3140.78C2220.37 3151.33 2220.21 3154.86 2207.68 3162.64L2204.03 3162.61C2196.98 3150.93 2232.19 3073.92 2243.89 3068.83L2248.82 3069.86C2264.52 3081.6 2268.83 3110.54 2277.96 3126.16C2277.93 3131.92 2279.69 3140.17 2274.32 3144.13L2270.14 3144.83C2255.55 3143.14 2244.13 3143.4 2224.42 3140.78Z" fill="white"/>
<path d="M4068.36 3165C4062.78 3154.22 4062.6 3085.79 4068.92 3074.51L4072.18 3072.73C4080.98 3076.13 4078.38 3092.36 4089.42 3101.24C4102.38 3097.3 4101.14 3072.13 4133.24 3068.18L4136.54 3069.24C4129.89 3082.6 4115.41 3101.77 4106.19 3115.27C4121.36 3126.49 4139.69 3152.6 4136.58 3165H4122.32C4112.18 3142.66 4106.76 3138.77 4084.16 3118.97C4082.93 3130.98 4082.37 3139.52 4078.29 3151.3L4077.38 3154.02C4075.4 3159.64 4075.49 3161.22 4068.36 3165Z" fill="white"/>
<path d="M1456.82 121.627C1456.52 113.908 1454.1 112.773 1465.61 108.49C1482.12 115.585 1533.04 138.155 1531.54 149.991L1527.59 151.433C1513.78 147.934 1477.48 129.21 1456.82 121.627Z" fill="#71B867" fill-opacity="0.968627"/>
<path d="M2277.96 3126.16C2286.27 3140.58 2288.1 3150.58 2294.04 3165H2278.54C2276.34 3157.07 2274.01 3152.48 2270.14 3144.83L2274.32 3144.13C2279.69 3140.17 2277.93 3131.92 2277.96 3126.16Z" fill="white"/>
</g>
<defs>
<clipPath id="clip0_130_1319">
<rect width="5726" height="3165" fill="white"/>
</clipPath>
</defs>
</svg>
